<svg xmlns="http://www.w3.org/2000/svg" width="220" height="40" viewBox="0 0 220 40" fill="none">

<rect x="20" y="12" width="3" height="16" fill="#1F2022"/><rect x="24" y="12" width="2" height="16" fill="#1F2022"/><rect x="28" y="12" width="2" height="16" fill="#1F2022"/><rect x="32" y="12" width="3" height="16" fill="#1F2022"/><rect x="36" y="12" width="2" height="16" fill="#1F2022"/><rect x="40" y="12" width="2" height="16" fill="#1F2022"/><rect x="44" y="12" width="3" height="16" fill="#1F2022"/><rect x="48" y="12" width="2" height="16" fill="#1F2022"/><rect x="52" y="12" width="2" height="16" fill="#1F2022"/><rect x="56" y="12" width="3" height="16" fill="#1F2022"/><rect x="60" y="12" width="2" height="16" fill="#1F2022"/><rect x="64" y="12" width="2" height="16" fill="#1F2022"/><rect x="68" y="12" width="3" height="16" fill="#1F2022"/><rect x="72" y="12" width="2" height="16" fill="#1F2022"/><rect x="76" y="12" width="2" height="16" fill="#1F2022"/><rect x="80" y="12" width="3" height="16" fill="#1F2022"/><rect x="84" y="12" width="2" height="16" fill="#1F2022"/><rect x="88" y="12" width="2" height="16" fill="#1F2022"/><rect x="92" y="12" width="3" height="16" fill="#1F2022"/><rect x="96" y="12" width="2" height="16" fill="#1F2022"/><rect x="100" y="12" width="2" height="16" fill="#1F2022"/><rect x="104" y="12" width="3" height="16" fill="#1F2022"/><rect x="108" y="12" width="2" height="16" fill="#1F2022"/><rect x="112" y="12" width="2" height="16" fill="#1F2022"/><rect x="116" y="12" width="3" height="16" fill="#1F2022"/><rect x="120" y="12" width="2" height="16" fill="#1F2022"/><rect x="124" y="12" width="2" height="16" fill="#1F2022"/><rect x="128" y="12" width="3" height="16" fill="#1F2022"/><rect x="132" y="12" width="2" height="16" fill="#1F2022"/><rect x="136" y="12" width="2" height="16" fill="#1F2022"/><rect x="140" y="12" width="3" height="16" fill="#1F2022"/><rect x="144" y="12" width="2" height="16" fill="#1F2022"/><rect x="148" y="12" width="2" height="16" fill="#1F2022"/><rect x="152" y="12" width="3" height="16" fill="#1F2022"/><rect x="156" y="12" width="2" height="16" fill="#1F2022"/><rect x="160" y="12" width="2" height="16" fill="#1F2022"/><rect x="164" y="12" width="3" height="16" fill="#1F2022"/><rect x="168" y="12" width="2" height="16" fill="#1F2022"/><rect x="172" y="12" width="2" height="16" fill="#1F2022"/><rect x="176" y="12" width="3" height="16" fill="#1F2022"/>
</svg>
