<svg xmlns="http://www.w3.org/2000/svg" width="256" height="256" viewBox="0 0 256 256" fill="none">

<circle cx="24" cy="24" r="1.6" fill="#8A52FF" fill-opacity="0.000"/>
<circle cx="34" cy="24" r="1.6" fill="#8A52FF" fill-opacity="0.000"/>
<circle cx="44" cy="24" r="1.6" fill="#8A52FF" fill-opacity="0.000"/>
<circle cx="54" cy="24" r="1.6" fill="#8A52FF" fill-opacity="0.000"/>
<circle cx="64" cy="24" r="1.6" fill="#8A52FF" fill-opacity="0.028"/>
<circle cx="74" cy="24" r="1.6" fill="#8A52FF" fill-opacity="0.068"/>
<circle cx="84" cy="24" r="1.6" fill="#8A52FF" fill-opacity="0.102"/>
<circle cx="94" cy="24" r="1.6" fill="#8A52FF" fill-opacity="0.130"/>
<circle cx="104" cy="24" r="1.6" fill="#8A52FF" fill-opacity="0.150"/>
<circle cx="114" cy="24" r="1.6" fill="#8A52FF" fill-opacity="0.163"/>
<circle cx="124" cy="24" r="1.6" fill="#8A52FF" fill-opacity="0.167"/>
<circle cx="134" cy="24" r="1.6" fill="#8A52FF" fill-opacity="0.163"/>
<circle cx="144" cy="24" r="1.6" fill="#8A52FF" fill-opacity="0.150"/>
<circle cx="154" cy="24" r="1.6" fill="#8A52FF" fill-opacity="0.130"/>
<circle cx="164" cy="24" r="1.6" fill="#8A52FF" fill-opacity="0.102"/>
<circle cx="174" cy="24" r="1.6" fill="#8A52FF" fill-opacity="0.068"/>
<circle cx="184" cy="24" r="1.6" fill="#8A52FF" fill-opacity="0.028"/>
<circle cx="194" cy="24" r="1.6" fill="#8A52FF" fill-opacity="0.000"/>
<circle cx="204" cy="24" r="1.6" fill="#8A52FF" fill-opacity="0.000"/>
<circle cx="214" cy="24" r="1.6" fill="#8A52FF" fill-opacity="0.000"/>
<circle cx="24" cy="34" r="1.6" fill="#8A52FF" fill-opacity="0.000"/>
<circle cx="34" cy="34" r="1.6" fill="#8A52FF" fill-opacity="0.000"/>
<circle cx="44" cy="34" r="1.6" fill="#8A52FF" fill-opacity="0.000"/>
<circle cx="54" cy="34" r="1.6" fill="#8A52FF" fill-opacity="0.050"/>
<circle cx="64" cy="34" r="1.6" fill="#8A52FF" fill-opacity="0.099"/>
<circle cx="74" cy="34" r="1.6" fill="#8A52FF" fill-opacity="0.142"/>
<circle cx="84" cy="34" r="1.6" fill="#8A52FF" fill-opacity="0.179"/>
<circle cx="94" cy="34" r="1.6" fill="#8A52FF" fill-opacity="0.209"/>
<circle cx="104" cy="34" r="1.6" fill="#8A52FF" fill-opacity="0.232"/>
<circle cx="114" cy="34" r="1.6" fill="#8A52FF" fill-opacity="0.245"/>
<circle cx="124" cy="34" r="1.6" fill="#8A52FF" fill-opacity="0.250"/>
<circle cx="134" cy="34" r="1.6" fill="#8A52FF" fill-opacity="0.245"/>
<circle cx="144" cy="34" r="1.6" fill="#8A52FF" fill-opacity="0.232"/>
<circle cx="154" cy="34" r="1.6" fill="#8A52FF" fill-opacity="0.209"/>
<circle cx="164" cy="34" r="1.6" fill="#8A52FF" fill-opacity="0.179"/>
<circle cx="174" cy="34" r="1.6" fill="#8A52FF" fill-opacity="0.142"/>
<circle cx="184" cy="34" r="1.6" fill="#8A52FF" fill-opacity="0.099"/>
<circle cx="194" cy="34" r="1.6" fill="#8A52FF" fill-opacity="0.050"/>
<circle cx="204" cy="34" r="1.6" fill="#8A52FF" fill-opacity="0.000"/>
<circle cx="214" cy="34" r="1.6" fill="#8A52FF" fill-opacity="0.000"/>
<circle cx="24" cy="44" r="1.6" fill="#8A52FF" fill-opacity="0.000"/>
<circle cx="34" cy="44" r="1.6" fill="#8A52FF" fill-opacity="0.000"/>
<circle cx="44" cy="44" r="1.6" fill="#8A52FF" fill-opacity="0.057"/>
<circle cx="54" cy="44" r="1.6" fill="#8A52FF" fill-opacity="0.114"/>
<circle cx="64" cy="44" r="1.6" fill="#8A52FF" fill-opacity="0.167"/>
<circle cx="74" cy="44" r="1.6" fill="#8A52FF" fill-opacity="0.214"/>
<circle cx="84" cy="44" r="1.6" fill="#8A52FF" fill-opacity="0.255"/>
<circle cx="94" cy="44" r="1.6" fill="#8A52FF" fill-opacity="0.288"/>
<circle cx="104" cy="44" r="1.6" fill="#8A52FF" fill-opacity="0.313"/>
<circle cx="114" cy="44" r="1.6" fill="#8A52FF" fill-opacity="0.328"/>
<circle cx="124" cy="44" r="1.6" fill="#8A52FF" fill-opacity="0.333"/>
<circle cx="134" cy="44" r="1.6" fill="#8A52FF" fill-opacity="0.328"/>
<circle cx="144" cy="44" r="1.6" fill="#8A52FF" fill-opacity="0.313"/>
<circle cx="154" cy="44" r="1.6" fill="#8A52FF" fill-opacity="0.288"/>
<circle cx="164" cy="44" r="1.6" fill="#8A52FF" fill-opacity="0.255"/>
<circle cx="174" cy="44" r="1.6" fill="#8A52FF" fill-opacity="0.214"/>
<circle cx="184" cy="44" r="1.6" fill="#8A52FF" fill-opacity="0.167"/>
<circle cx="194" cy="44" r="1.6" fill="#8A52FF" fill-opacity="0.114"/>
<circle cx="204" cy="44" r="1.6" fill="#8A52FF" fill-opacity="0.057"/>
<circle cx="214" cy="44" r="1.6" fill="#8A52FF" fill-opacity="0.000"/>
<circle cx="24" cy="54" r="1.6" fill="#8A52FF" fill-opacity="0.000"/>
<circle cx="34" cy="54" r="1.6" fill="#8A52FF" fill-opacity="0.050"/>
<circle cx="44" cy="54" r="1.6" fill="#8A52FF" fill-opacity="0.114"/>
<circle cx="54" cy="54" r="1.6" fill="#8A52FF" fill-opacity="0.175"/>
<circle cx="64" cy="54" r="1.6" fill="#8A52FF" fill-opacity="0.232"/>
<circle cx="74" cy="54" r="1.6" fill="#8A52FF" fill-opacity="0.283"/>
<circle cx="84" cy="54" r="1.6" fill="#8A52FF" fill-opacity="0.328"/>
<circle cx="94" cy="54" r="1.6" fill="#8A52FF" fill-opacity="0.365"/>
<circle cx="104" cy="54" r="1.6" fill="#8A52FF" fill-opacity="0.393"/>
<circle cx="114" cy="54" r="1.6" fill="#8A52FF" fill-opacity="0.411"/>
<circle cx="124" cy="54" r="1.6" fill="#8A52FF" fill-opacity="0.417"/>
<circle cx="134" cy="54" r="1.6" fill="#8A52FF" fill-opacity="0.411"/>
<circle cx="144" cy="54" r="1.6" fill="#8A52FF" fill-opacity="0.393"/>
<circle cx="154" cy="54" r="1.6" fill="#8A52FF" fill-opacity="0.365"/>
<circle cx="164" cy="54" r="1.6" fill="#8A52FF" fill-opacity="0.328"/>
<circle cx="174" cy="54" r="1.6" fill="#8A52FF" fill-opacity="0.283"/>
<circle cx="184" cy="54" r="1.6" fill="#8A52FF" fill-opacity="0.232"/>
<circle cx="194" cy="54" r="1.6" fill="#8A52FF" fill-opacity="0.175"/>
<circle cx="204" cy="54" r="1.6" fill="#8A52FF" fill-opacity="0.114"/>
<circle cx="214" cy="54" r="1.6" fill="#8A52FF" fill-opacity="0.050"/>
<circle cx="24" cy="64" r="1.6" fill="#8A52FF" fill-opacity="0.028"/>
<circle cx="34" cy="64" r="1.6" fill="#8A52FF" fill-opacity="0.099"/>
<circle cx="44" cy="64" r="1.6" fill="#8A52FF" fill-opacity="0.167"/>
<circle cx="54" cy="64" r="1.6" fill="#8A52FF" fill-opacity="0.232"/>
<circle cx="64" cy="64" r="1.6" fill="#8A52FF" fill-opacity="0.293"/>
<circle cx="74" cy="64" r="1.6" fill="#8A52FF" fill-opacity="0.349"/>
<circle cx="84" cy="64" r="1.6" fill="#8A52FF" fill-opacity="0.399"/>
<circle cx="94" cy="64" r="1.6" fill="#8A52FF" fill-opacity="0.441"/>
<circle cx="104" cy="64" r="1.6" fill="#8A52FF" fill-opacity="0.473"/>
<circle cx="114" cy="64" r="1.6" fill="#8A52FF" fill-opacity="0.493"/>
<circle cx="124" cy="64" r="1.6" fill="#8A52FF" fill-opacity="0.500"/>
<circle cx="134" cy="64" r="1.6" fill="#8A52FF" fill-opacity="0.493"/>
<circle cx="144" cy="64" r="1.6" fill="#8A52FF" fill-opacity="0.473"/>
<circle cx="154" cy="64" r="1.6" fill="#8A52FF" fill-opacity="0.441"/>
<circle cx="164" cy="64" r="1.6" fill="#8A52FF" fill-opacity="0.399"/>
<circle cx="174" cy="64" r="1.6" fill="#8A52FF" fill-opacity="0.349"/>
<circle cx="184" cy="64" r="1.6" fill="#8A52FF" fill-opacity="0.293"/>
<circle cx="194" cy="64" r="1.6" fill="#8A52FF" fill-opacity="0.232"/>
<circle cx="204" cy="64" r="1.6" fill="#8A52FF" fill-opacity="0.167"/>
<circle cx="214" cy="64" r="1.6" fill="#8A52FF" fill-opacity="0.099"/>
<circle cx="24" cy="74" r="1.6" fill="#8A52FF" fill-opacity="0.068"/>
<circle cx="34" cy="74" r="1.6" fill="#8A52FF" fill-opacity="0.142"/>
<circle cx="44" cy="74" r="1.6" fill="#8A52FF" fill-opacity="0.214"/>
<circle cx="54" cy="74" r="1.6" fill="#8A52FF" fill-opacity="0.283"/>
<circle cx="64" cy="74" r="1.6" fill="#8A52FF" fill-opacity="0.349"/>
<circle cx="74" cy="74" r="1.6" fill="#8A52FF" fill-opacity="0.411"/>
<circle cx="84" cy="74" r="1.6" fill="#8A52FF" fill-opacity="0.466"/>
<circle cx="94" cy="74" r="1.6" fill="#8A52FF" fill-opacity="0.514"/>
<circle cx="104" cy="74" r="1.6" fill="#8A52FF" fill-opacity="0.551"/>
<circle cx="114" cy="74" r="1.6" fill="#8A52FF" fill-opacity="0.575"/>
<circle cx="124" cy="74" r="1.6" fill="#8A52FF" fill-opacity="0.583"/>
<circle cx="134" cy="74" r="1.6" fill="#8A52FF" fill-opacity="0.575"/>
<circle cx="144" cy="74" r="1.6" fill="#8A52FF" fill-opacity="0.551"/>
<circle cx="154" cy="74" r="1.6" fill="#8A52FF" fill-opacity="0.514"/>
<circle cx="164" cy="74" r="1.6" fill="#8A52FF" fill-opacity="0.466"/>
<circle cx="174" cy="74" r="1.6" fill="#8A52FF" fill-opacity="0.411"/>
<circle cx="184" cy="74" r="1.6" fill="#8A52FF" fill-opacity="0.349"/>
<circle cx="194" cy="74" r="1.6" fill="#8A52FF" fill-opacity="0.283"/>
<circle cx="204" cy="74" r="1.6" fill="#8A52FF" fill-opacity="0.214"/>
<circle cx="214" cy="74" r="1.6" fill="#8A52FF" fill-opacity="0.142"/>
<circle cx="24" cy="84" r="1.6" fill="#8A52FF" fill-opacity="0.102"/>
<circle cx="34" cy="84" r="1.6" fill="#8A52FF" fill-opacity="0.179"/>
<circle cx="44" cy="84" r="1.6" fill="#8A52FF" fill-opacity="0.255"/>
<circle cx="54" cy="84" r="1.6" fill="#8A52FF" fill-opacity="0.328"/>
<circle cx="64" cy="84" r="1.6" fill="#8A52FF" fill-opacity="0.399"/>
<circle cx="74" cy="84" r="1.6" fill="#8A52FF" fill-opacity="0.466"/>
<circle cx="84" cy="84" r="1.6" fill="#8A52FF" fill-opacity="0.529"/>
<circle cx="94" cy="84" r="1.6" fill="#8A52FF" fill-opacity="0.583"/>
<circle cx="104" cy="84" r="1.6" fill="#8A52FF" fill-opacity="0.627"/>
<circle cx="114" cy="84" r="1.6" fill="#8A52FF" fill-opacity="0.656"/>
<circle cx="124" cy="84" r="1.6" fill="#8A52FF" fill-opacity="0.667"/>
<circle cx="134" cy="84" r="1.6" fill="#8A52FF" fill-opacity="0.656"/>
<circle cx="144" cy="84" r="1.6" fill="#8A52FF" fill-opacity="0.627"/>
<circle cx="154" cy="84" r="1.6" fill="#8A52FF" fill-opacity="0.583"/>
<circle cx="164" cy="84" r="1.6" fill="#8A52FF" fill-opacity="0.529"/>
<circle cx="174" cy="84" r="1.6" fill="#8A52FF" fill-opacity="0.466"/>
<circle cx="184" cy="84" r="1.6" fill="#8A52FF" fill-opacity="0.399"/>
<circle cx="194" cy="84" r="1.6" fill="#8A52FF" fill-opacity="0.328"/>
<circle cx="204" cy="84" r="1.6" fill="#8A52FF" fill-opacity="0.255"/>
<circle cx="214" cy="84" r="1.6" fill="#8A52FF" fill-opacity="0.179"/>
<circle cx="24" cy="94" r="1.6" fill="#8A52FF" fill-opacity="0.130"/>
<circle cx="34" cy="94" r="1.6" fill="#8A52FF" fill-opacity="0.209"/>
<circle cx="44" cy="94" r="1.6" fill="#8A52FF" fill-opacity="0.288"/>
<circle cx="54" cy="94" r="1.6" fill="#8A52FF" fill-opacity="0.365"/>
<circle cx="64" cy="94" r="1.6" fill="#8A52FF" fill-opacity="0.441"/>
<circle cx="74" cy="94" r="1.6" fill="#8A52FF" fill-opacity="0.514"/>
<circle cx="84" cy="94" r="1.6" fill="#8A52FF" fill-opacity="0.583"/>
<circle cx="94" cy="94" r="1.6" fill="#8A52FF" fill-opacity="0.646"/>
<circle cx="104" cy="94" r="1.6" fill="#8A52FF" fill-opacity="0.700"/>
<circle cx="114" cy="94" r="1.6" fill="#8A52FF" fill-opacity="0.736"/>
<circle cx="124" cy="94" r="1.6" fill="#8A52FF" fill-opacity="0.750"/>
<circle cx="134" cy="94" r="1.6" fill="#8A52FF" fill-opacity="0.736"/>
<circle cx="144" cy="94" r="1.6" fill="#8A52FF" fill-opacity="0.700"/>
<circle cx="154" cy="94" r="1.6" fill="#8A52FF" fill-opacity="0.646"/>
<circle cx="164" cy="94" r="1.6" fill="#8A52FF" fill-opacity="0.583"/>
<circle cx="174" cy="94" r="1.6" fill="#8A52FF" fill-opacity="0.514"/>
<circle cx="184" cy="94" r="1.6" fill="#8A52FF" fill-opacity="0.441"/>
<circle cx="194" cy="94" r="1.6" fill="#8A52FF" fill-opacity="0.365"/>
<circle cx="204" cy="94" r="1.6" fill="#8A52FF" fill-opacity="0.288"/>
<circle cx="214" cy="94" r="1.6" fill="#8A52FF" fill-opacity="0.209"/>
<circle cx="24" cy="104" r="1.6" fill="#8A52FF" fill-opacity="0.150"/>
<circle cx="34" cy="104" r="1.6" fill="#8A52FF" fill-opacity="0.232"/>
<circle cx="44" cy="104" r="1.6" fill="#8A52FF" fill-opacity="0.313"/>
<circle cx="54" cy="104" r="1.6" fill="#8A52FF" fill-opacity="0.393"/>
<circle cx="64" cy="104" r="1.6" fill="#8A52FF" fill-opacity="0.473"/>
<circle cx="74" cy="104" r="1.6" fill="#8A52FF" fill-opacity="0.551"/>
<circle cx="84" cy="104" r="1.6" fill="#8A52FF" fill-opacity="0.627"/>
<circle cx="94" cy="104" r="1.6" fill="#8A52FF" fill-opacity="0.700"/>
<circle cx="104" cy="104" r="1.6" fill="#8A52FF" fill-opacity="0.764"/>
<circle cx="114" cy="104" r="1.6" fill="#8A52FF" fill-opacity="0.814"/>
<circle cx="124" cy="104" r="1.6" fill="#8A52FF" fill-opacity="0.833"/>
<circle cx="134" cy="104" r="1.6" fill="#8A52FF" fill-opacity="0.814"/>
<circle cx="144" cy="104" r="1.6" fill="#8A52FF" fill-opacity="0.764"/>
<circle cx="154" cy="104" r="1.6" fill="#8A52FF" fill-opacity="0.700"/>
<circle cx="164" cy="104" r="1.6" fill="#8A52FF" fill-opacity="0.627"/>
<circle cx="174" cy="104" r="1.6" fill="#8A52FF" fill-opacity="0.551"/>
<circle cx="184" cy="104" r="1.6" fill="#8A52FF" fill-opacity="0.473"/>
<circle cx="194" cy="104" r="1.6" fill="#8A52FF" fill-opacity="0.393"/>
<circle cx="204" cy="104" r="1.6" fill="#8A52FF" fill-opacity="0.313"/>
<circle cx="214" cy="104" r="1.6" fill="#8A52FF" fill-opacity="0.232"/>
<circle cx="24" cy="114" r="1.6" fill="#8A52FF" fill-opacity="0.163"/>
<circle cx="34" cy="114" r="1.6" fill="#8A52FF" fill-opacity="0.245"/>
<circle cx="44" cy="114" r="1.6" fill="#8A52FF" fill-opacity="0.328"/>
<circle cx="54" cy="114" r="1.6" fill="#8A52FF" fill-opacity="0.411"/>
<circle cx="64" cy="114" r="1.6" fill="#8A52FF" fill-opacity="0.493"/>
<circle cx="74" cy="114" r="1.6" fill="#8A52FF" fill-opacity="0.575"/>
<circle cx="84" cy="114" r="1.6" fill="#8A52FF" fill-opacity="0.656"/>
<circle cx="94" cy="114" r="1.6" fill="#8A52FF" fill-opacity="0.736"/>
<circle cx="104" cy="114" r="1.6" fill="#8A52FF" fill-opacity="0.814"/>
<circle cx="114" cy="114" r="1.6" fill="#8A52FF" fill-opacity="0.882"/>
<circle cx="124" cy="114" r="1.6" fill="#8A52FF" fill-opacity="0.917"/>
<circle cx="134" cy="114" r="1.6" fill="#8A52FF" fill-opacity="0.882"/>
<circle cx="144" cy="114" r="1.6" fill="#8A52FF" fill-opacity="0.814"/>
<circle cx="154" cy="114" r="1.6" fill="#8A52FF" fill-opacity="0.736"/>
<circle cx="164" cy="114" r="1.6" fill="#8A52FF" fill-opacity="0.656"/>
<circle cx="174" cy="114" r="1.6" fill="#8A52FF" fill-opacity="0.575"/>
<circle cx="184" cy="114" r="1.6" fill="#8A52FF" fill-opacity="0.493"/>
<circle cx="194" cy="114" r="1.6" fill="#8A52FF" fill-opacity="0.411"/>
<circle cx="204" cy="114" r="1.6" fill="#8A52FF" fill-opacity="0.328"/>
<circle cx="214" cy="114" r="1.6" fill="#8A52FF" fill-opacity="0.245"/>
<circle cx="24" cy="124" r="1.6" fill="#8A52FF" fill-opacity="0.167"/>
<circle cx="34" cy="124" r="1.6" fill="#8A52FF" fill-opacity="0.250"/>
<circle cx="44" cy="124" r="1.6" fill="#8A52FF" fill-opacity="0.333"/>
<circle cx="54" cy="124" r="1.6" fill="#8A52FF" fill-opacity="0.417"/>
<circle cx="64" cy="124" r="1.6" fill="#8A52FF" fill-opacity="0.500"/>
<circle cx="74" cy="124" r="1.6" fill="#8A52FF" fill-opacity="0.583"/>
<circle cx="84" cy="124" r="1.6" fill="#8A52FF" fill-opacity="0.667"/>
<circle cx="94" cy="124" r="1.6" fill="#8A52FF" fill-opacity="0.750"/>
<circle cx="104" cy="124" r="1.6" fill="#8A52FF" fill-opacity="0.833"/>
<circle cx="114" cy="124" r="1.6" fill="#8A52FF" fill-opacity="0.917"/>
<circle cx="124" cy="124" r="1.6" fill="#8A52FF" fill-opacity="1.000"/>
<circle cx="134" cy="124" r="1.6" fill="#8A52FF" fill-opacity="0.917"/>
<circle cx="144" cy="124" r="1.6" fill="#8A52FF" fill-opacity="0.833"/>
<circle cx="154" cy="124" r="1.6" fill="#8A52FF" fill-opacity="0.750"/>
<circle cx="164" cy="124" r="1.6" fill="#8A52FF" fill-opacity="0.667"/>
<circle cx="174" cy="124" r="1.6" fill="#8A52FF" fill-opacity="0.583"/>
<circle cx="184" cy="124" r="1.6" fill="#8A52FF" fill-opacity="0.500"/>
<circle cx="194" cy="124" r="1.6" fill="#8A52FF" fill-opacity="0.417"/>
<circle cx="204" cy="124" r="1.6" fill="#8A52FF" fill-opacity="0.333"/>
<circle cx="214" cy="124" r="1.6" fill="#8A52FF" fill-opacity="0.250"/>
<circle cx="24" cy="134" r="1.6" fill="#8A52FF" fill-opacity="0.163"/>
<circle cx="34" cy="134" r="1.6" fill="#8A52FF" fill-opacity="0.245"/>
<circle cx="44" cy="134" r="1.6" fill="#8A52FF" fill-opacity="0.328"/>
<circle cx="54" cy="134" r="1.6" fill="#8A52FF" fill-opacity="0.411"/>
<circle cx="64" cy="134" r="1.6" fill="#8A52FF" fill-opacity="0.493"/>
<circle cx="74" cy="134" r="1.6" fill="#8A52FF" fill-opacity="0.575"/>
<circle cx="84" cy="134" r="1.6" fill="#8A52FF" fill-opacity="0.656"/>
<circle cx="94" cy="134" r="1.6" fill="#8A52FF" fill-opacity="0.736"/>
<circle cx="104" cy="134" r="1.6" fill="#8A52FF" fill-opacity="0.814"/>
<circle cx="114" cy="134" r="1.6" fill="#8A52FF" fill-opacity="0.882"/>
<circle cx="124" cy="134" r="1.6" fill="#8A52FF" fill-opacity="0.917"/>
<circle cx="134" cy="134" r="1.6" fill="#8A52FF" fill-opacity="0.882"/>
<circle cx="144" cy="134" r="1.6" fill="#8A52FF" fill-opacity="0.814"/>
<circle cx="154" cy="134" r="1.6" fill="#8A52FF" fill-opacity="0.736"/>
<circle cx="164" cy="134" r="1.6" fill="#8A52FF" fill-opacity="0.656"/>
<circle cx="174" cy="134" r="1.6" fill="#8A52FF" fill-opacity="0.575"/>
<circle cx="184" cy="134" r="1.6" fill="#8A52FF" fill-opacity="0.493"/>
<circle cx="194" cy="134" r="1.6" fill="#8A52FF" fill-opacity="0.411"/>
<circle cx="204" cy="134" r="1.6" fill="#8A52FF" fill-opacity="0.328"/>
<circle cx="214" cy="134" r="1.6" fill="#8A52FF" fill-opacity="0.245"/>
<circle cx="24" cy="144" r="1.6" fill="#8A52FF" fill-opacity="0.150"/>
<circle cx="34" cy="144" r="1.6" fill="#8A52FF" fill-opacity="0.232"/>
<circle cx="44" cy="144" r="1.6" fill="#8A52FF" fill-opacity="0.313"/>
<circle cx="54" cy="144" r="1.6" fill="#8A52FF" fill-opacity="0.393"/>
<circle cx="64" cy="144" r="1.6" fill="#8A52FF" fill-opacity="0.473"/>
<circle cx="74" cy="144" r="1.6" fill="#8A52FF" fill-opacity="0.551"/>
<circle cx="84" cy="144" r="1.6" fill="#8A52FF" fill-opacity="0.627"/>
<circle cx="94" cy="144" r="1.6" fill="#8A52FF" fill-opacity="0.700"/>
<circle cx="104" cy="144" r="1.6" fill="#8A52FF" fill-opacity="0.764"/>
<circle cx="114" cy="144" r="1.6" fill="#8A52FF" fill-opacity="0.814"/>
<circle cx="124" cy="144" r="1.6" fill="#8A52FF" fill-opacity="0.833"/>
<circle cx="134" cy="144" r="1.6" fill="#8A52FF" fill-opacity="0.814"/>
<circle cx="144" cy="144" r="1.6" fill="#8A52FF" fill-opacity="0.764"/>
<circle cx="154" cy="144" r="1.6" fill="#8A52FF" fill-opacity="0.700"/>
<circle cx="164" cy="144" r="1.6" fill="#8A52FF" fill-opacity="0.627"/>
<circle cx="174" cy="144" r="1.6" fill="#8A52FF" fill-opacity="0.551"/>
<circle cx="184" cy="144" r="1.6" fill="#8A52FF" fill-opacity="0.473"/>
<circle cx="194" cy="144" r="1.6" fill="#8A52FF" fill-opacity="0.393"/>
<circle cx="204" cy="144" r="1.6" fill="#8A52FF" fill-opacity="0.313"/>
<circle cx="214" cy="144" r="1.6" fill="#8A52FF" fill-opacity="0.232"/>
<circle cx="24" cy="154" r="1.6" fill="#8A52FF" fill-opacity="0.130"/>
<circle cx="34" cy="154" r="1.6" fill="#8A52FF" fill-opacity="0.209"/>
<circle cx="44" cy="154" r="1.6" fill="#8A52FF" fill-opacity="0.288"/>
<circle cx="54" cy="154" r="1.6" fill="#8A52FF" fill-opacity="0.365"/>
<circle cx="64" cy="154" r="1.6" fill="#8A52FF" fill-opacity="0.441"/>
<circle cx="74" cy="154" r="1.6" fill="#8A52FF" fill-opacity="0.514"/>
<circle cx="84" cy="154" r="1.6" fill="#8A52FF" fill-opacity="0.583"/>
<circle cx="94" cy="154" r="1.6" fill="#8A52FF" fill-opacity="0.646"/>
<circle cx="104" cy="154" r="1.6" fill="#8A52FF" fill-opacity="0.700"/>
<circle cx="114" cy="154" r="1.6" fill="#8A52FF" fill-opacity="0.736"/>
<circle cx="124" cy="154" r="1.6" fill="#8A52FF" fill-opacity="0.750"/>
<circle cx="134" cy="154" r="1.6" fill="#8A52FF" fill-opacity="0.736"/>
<circle cx="144" cy="154" r="1.6" fill="#8A52FF" fill-opacity="0.700"/>
<circle cx="154" cy="154" r="1.6" fill="#8A52FF" fill-opacity="0.646"/>
<circle cx="164" cy="154" r="1.6" fill="#8A52FF" fill-opacity="0.583"/>
<circle cx="174" cy="154" r="1.6" fill="#8A52FF" fill-opacity="0.514"/>
<circle cx="184" cy="154" r="1.6" fill="#8A52FF" fill-opacity="0.441"/>
<circle cx="194" cy="154" r="1.6" fill="#8A52FF" fill-opacity="0.365"/>
<circle cx="204" cy="154" r="1.6" fill="#8A52FF" fill-opacity="0.288"/>
<circle cx="214" cy="154" r="1.6" fill="#8A52FF" fill-opacity="0.209"/>
<circle cx="24" cy="164" r="1.6" fill="#8A52FF" fill-opacity="0.102"/>
<circle cx="34" cy="164" r="1.6" fill="#8A52FF" fill-opacity="0.179"/>
<circle cx="44" cy="164" r="1.6" fill="#8A52FF" fill-opacity="0.255"/>
<circle cx="54" cy="164" r="1.6" fill="#8A52FF" fill-opacity="0.328"/>
<circle cx="64" cy="164" r="1.6" fill="#8A52FF" fill-opacity="0.399"/>
<circle cx="74" cy="164" r="1.6" fill="#8A52FF" fill-opacity="0.466"/>
<circle cx="84" cy="164" r="1.6" fill="#8A52FF" fill-opacity="0.529"/>
<circle cx="94" cy="164" r="1.6" fill="#8A52FF" fill-opacity="0.583"/>
<circle cx="104" cy="164" r="1.6" fill="#8A52FF" fill-opacity="0.627"/>
<circle cx="114" cy="164" r="1.6" fill="#8A52FF" fill-opacity="0.656"/>
<circle cx="124" cy="164" r="1.6" fill="#8A52FF" fill-opacity="0.667"/>
<circle cx="134" cy="164" r="1.6" fill="#8A52FF" fill-opacity="0.656"/>
<circle cx="144" cy="164" r="1.6" fill="#8A52FF" fill-opacity="0.627"/>
<circle cx="154" cy="164" r="1.6" fill="#8A52FF" fill-opacity="0.583"/>
<circle cx="164" cy="164" r="1.6" fill="#8A52FF" fill-opacity="0.529"/>
<circle cx="174" cy="164" r="1.6" fill="#8A52FF" fill-opacity="0.466"/>
<circle cx="184" cy="164" r="1.6" fill="#8A52FF" fill-opacity="0.399"/>
<circle cx="194" cy="164" r="1.6" fill="#8A52FF" fill-opacity="0.328"/>
<circle cx="204" cy="164" r="1.6" fill="#8A52FF" fill-opacity="0.255"/>
<circle cx="214" cy="164" r="1.6" fill="#8A52FF" fill-opacity="0.179"/>
<circle cx="24" cy="174" r="1.6" fill="#8A52FF" fill-opacity="0.068"/>
<circle cx="34" cy="174" r="1.6" fill="#8A52FF" fill-opacity="0.142"/>
<circle cx="44" cy="174" r="1.6" fill="#8A52FF" fill-opacity="0.214"/>
<circle cx="54" cy="174" r="1.6" fill="#8A52FF" fill-opacity="0.283"/>
<circle cx="64" cy="174" r="1.6" fill="#8A52FF" fill-opacity="0.349"/>
<circle cx="74" cy="174" r="1.6" fill="#8A52FF" fill-opacity="0.411"/>
<circle cx="84" cy="174" r="1.6" fill="#8A52FF" fill-opacity="0.466"/>
<circle cx="94" cy="174" r="1.6" fill="#8A52FF" fill-opacity="0.514"/>
<circle cx="104" cy="174" r="1.6" fill="#8A52FF" fill-opacity="0.551"/>
<circle cx="114" cy="174" r="1.6" fill="#8A52FF" fill-opacity="0.575"/>
<circle cx="124" cy="174" r="1.6" fill="#8A52FF" fill-opacity="0.583"/>
<circle cx="134" cy="174" r="1.6" fill="#8A52FF" fill-opacity="0.575"/>
<circle cx="144" cy="174" r="1.6" fill="#8A52FF" fill-opacity="0.551"/>
<circle cx="154" cy="174" r="1.6" fill="#8A52FF" fill-opacity="0.514"/>
<circle cx="164" cy="174" r="1.6" fill="#8A52FF" fill-opacity="0.466"/>
<circle cx="174" cy="174" r="1.6" fill="#8A52FF" fill-opacity="0.411"/>
<circle cx="184" cy="174" r="1.6" fill="#8A52FF" fill-opacity="0.349"/>
<circle cx="194" cy="174" r="1.6" fill="#8A52FF" fill-opacity="0.283"/>
<circle cx="204" cy="174" r="1.6" fill="#8A52FF" fill-opacity="0.214"/>
<circle cx="214" cy="174" r="1.6" fill="#8A52FF" fill-opacity="0.142"/>
<circle cx="24" cy="184" r="1.6" fill="#8A52FF" fill-opacity="0.028"/>
<circle cx="34" cy="184" r="1.6" fill="#8A52FF" fill-opacity="0.099"/>
<circle cx="44" cy="184" r="1.6" fill="#8A52FF" fill-opacity="0.167"/>
<circle cx="54" cy="184" r="1.6" fill="#8A52FF" fill-opacity="0.232"/>
<circle cx="64" cy="184" r="1.6" fill="#8A52FF" fill-opacity="0.293"/>
<circle cx="74" cy="184" r="1.6" fill="#8A52FF" fill-opacity="0.349"/>
<circle cx="84" cy="184" r="1.6" fill="#8A52FF" fill-opacity="0.399"/>
<circle cx="94" cy="184" r="1.6" fill="#8A52FF" fill-opacity="0.441"/>
<circle cx="104" cy="184" r="1.6" fill="#8A52FF" fill-opacity="0.473"/>
<circle cx="114" cy="184" r="1.6" fill="#8A52FF" fill-opacity="0.493"/>
<circle cx="124" cy="184" r="1.6" fill="#8A52FF" fill-opacity="0.500"/>
<circle cx="134" cy="184" r="1.6" fill="#8A52FF" fill-opacity="0.493"/>
<circle cx="144" cy="184" r="1.6" fill="#8A52FF" fill-opacity="0.473"/>
<circle cx="154" cy="184" r="1.6" fill="#8A52FF" fill-opacity="0.441"/>
<circle cx="164" cy="184" r="1.6" fill="#8A52FF" fill-opacity="0.399"/>
<circle cx="174" cy="184" r="1.6" fill="#8A52FF" fill-opacity="0.349"/>
<circle cx="184" cy="184" r="1.6" fill="#8A52FF" fill-opacity="0.293"/>
<circle cx="194" cy="184" r="1.6" fill="#8A52FF" fill-opacity="0.232"/>
<circle cx="204" cy="184" r="1.6" fill="#8A52FF" fill-opacity="0.167"/>
<circle cx="214" cy="184" r="1.6" fill="#8A52FF" fill-opacity="0.099"/>
<circle cx="24" cy="194" r="1.6" fill="#8A52FF" fill-opacity="0.000"/>
<circle cx="34" cy="194" r="1.6" fill="#8A52FF" fill-opacity="0.050"/>
<circle cx="44" cy="194" r="1.6" fill="#8A52FF" fill-opacity="0.114"/>
<circle cx="54" cy="194" r="1.6" fill="#8A52FF" fill-opacity="0.175"/>
<circle cx="64" cy="194" r="1.6" fill="#8A52FF" fill-opacity="0.232"/>
<circle cx="74" cy="194" r="1.6" fill="#8A52FF" fill-opacity="0.283"/>
<circle cx="84" cy="194" r="1.6" fill="#8A52FF" fill-opacity="0.328"/>
<circle cx="94" cy="194" r="1.6" fill="#8A52FF" fill-opacity="0.365"/>
<circle cx="104" cy="194" r="1.6" fill="#8A52FF" fill-opacity="0.393"/>
<circle cx="114" cy="194" r="1.6" fill="#8A52FF" fill-opacity="0.411"/>
<circle cx="124" cy="194" r="1.6" fill="#8A52FF" fill-opacity="0.417"/>
<circle cx="134" cy="194" r="1.6" fill="#8A52FF" fill-opacity="0.411"/>
<circle cx="144" cy="194" r="1.6" fill="#8A52FF" fill-opacity="0.393"/>
<circle cx="154" cy="194" r="1.6" fill="#8A52FF" fill-opacity="0.365"/>
<circle cx="164" cy="194" r="1.6" fill="#8A52FF" fill-opacity="0.328"/>
<circle cx="174" cy="194" r="1.6" fill="#8A52FF" fill-opacity="0.283"/>
<circle cx="184" cy="194" r="1.6" fill="#8A52FF" fill-opacity="0.232"/>
<circle cx="194" cy="194" r="1.6" fill="#8A52FF" fill-opacity="0.175"/>
<circle cx="204" cy="194" r="1.6" fill="#8A52FF" fill-opacity="0.114"/>
<circle cx="214" cy="194" r="1.6" fill="#8A52FF" fill-opacity="0.050"/>
<circle cx="24" cy="204" r="1.6" fill="#8A52FF" fill-opacity="0.000"/>
<circle cx="34" cy="204" r="1.6" fill="#8A52FF" fill-opacity="0.000"/>
<circle cx="44" cy="204" r="1.6" fill="#8A52FF" fill-opacity="0.057"/>
<circle cx="54" cy="204" r="1.6" fill="#8A52FF" fill-opacity="0.114"/>
<circle cx="64" cy="204" r="1.6" fill="#8A52FF" fill-opacity="0.167"/>
<circle cx="74" cy="204" r="1.6" fill="#8A52FF" fill-opacity="0.214"/>
<circle cx="84" cy="204" r="1.6" fill="#8A52FF" fill-opacity="0.255"/>
<circle cx="94" cy="204" r="1.6" fill="#8A52FF" fill-opacity="0.288"/>
<circle cx="104" cy="204" r="1.6" fill="#8A52FF" fill-opacity="0.313"/>
<circle cx="114" cy="204" r="1.6" fill="#8A52FF" fill-opacity="0.328"/>
<circle cx="124" cy="204" r="1.6" fill="#8A52FF" fill-opacity="0.333"/>
<circle cx="134" cy="204" r="1.6" fill="#8A52FF" fill-opacity="0.328"/>
<circle cx="144" cy="204" r="1.6" fill="#8A52FF" fill-opacity="0.313"/>
<circle cx="154" cy="204" r="1.6" fill="#8A52FF" fill-opacity="0.288"/>
<circle cx="164" cy="204" r="1.6" fill="#8A52FF" fill-opacity="0.255"/>
<circle cx="174" cy="204" r="1.6" fill="#8A52FF" fill-opacity="0.214"/>
<circle cx="184" cy="204" r="1.6" fill="#8A52FF" fill-opacity="0.167"/>
<circle cx="194" cy="204" r="1.6" fill="#8A52FF" fill-opacity="0.114"/>
<circle cx="204" cy="204" r="1.6" fill="#8A52FF" fill-opacity="0.057"/>
<circle cx="214" cy="204" r="1.6" fill="#8A52FF" fill-opacity="0.000"/>
<circle cx="24" cy="214" r="1.6" fill="#8A52FF" fill-opacity="0.000"/>
<circle cx="34" cy="214" r="1.6" fill="#8A52FF" fill-opacity="0.000"/>
<circle cx="44" cy="214" r="1.6" fill="#8A52FF" fill-opacity="0.000"/>
<circle cx="54" cy="214" r="1.6" fill="#8A52FF" fill-opacity="0.050"/>
<circle cx="64" cy="214" r="1.6" fill="#8A52FF" fill-opacity="0.099"/>
<circle cx="74" cy="214" r="1.6" fill="#8A52FF" fill-opacity="0.142"/>
<circle cx="84" cy="214" r="1.6" fill="#8A52FF" fill-opacity="0.179"/>
<circle cx="94" cy="214" r="1.6" fill="#8A52FF" fill-opacity="0.209"/>
<circle cx="104" cy="214" r="1.6" fill="#8A52FF" fill-opacity="0.232"/>
<circle cx="114" cy="214" r="1.6" fill="#8A52FF" fill-opacity="0.245"/>
<circle cx="124" cy="214" r="1.6" fill="#8A52FF" fill-opacity="0.250"/>
<circle cx="134" cy="214" r="1.6" fill="#8A52FF" fill-opacity="0.245"/>
<circle cx="144" cy="214" r="1.6" fill="#8A52FF" fill-opacity="0.232"/>
<circle cx="154" cy="214" r="1.6" fill="#8A52FF" fill-opacity="0.209"/>
<circle cx="164" cy="214" r="1.6" fill="#8A52FF" fill-opacity="0.179"/>
<circle cx="174" cy="214" r="1.6" fill="#8A52FF" fill-opacity="0.142"/>
<circle cx="184" cy="214" r="1.6" fill="#8A52FF" fill-opacity="0.099"/>
<circle cx="194" cy="214" r="1.6" fill="#8A52FF" fill-opacity="0.050"/>
<circle cx="204" cy="214" r="1.6" fill="#8A52FF" fill-opacity="0.000"/>
<circle cx="214" cy="214" r="1.6" fill="#8A52FF" fill-opacity="0.000"/>
</svg>
