<svg xmlns="http://www.w3.org/2000/svg" width="256" height="256" viewBox="0 0 256 256" fill="none">

<path d="M40 30V226" stroke="#B8B19C" stroke-width="2" opacity="0.7"/><path d="M70 30V226" stroke="#B8B19C" stroke-width="2" opacity="0.7"/><path d="M100 30V226" stroke="#B8B19C" stroke-width="2" opacity="0.7"/><path d="M130 30V226" stroke="#B8B19C" stroke-width="2" opacity="0.7"/><path d="M160 30V226" stroke="#B8B19C" stroke-width="2" opacity="0.7"/><path d="M190 30V226" stroke="#B8B19C" stroke-width="2" opacity="0.7"/><path d="M220 30V226" stroke="#B8B19C" stroke-width="2" opacity="0.7"/><path d="M30 40H226" stroke="#B8B19C" stroke-width="2" opacity="0.7"/><path d="M30 70H226" stroke="#B8B19C" stroke-width="2" opacity="0.7"/><path d="M30 100H226" stroke="#B8B19C" stroke-width="2" opacity="0.7"/><path d="M30 130H226" stroke="#B8B19C" stroke-width="2" opacity="0.7"/><path d="M30 160H226" stroke="#B8B19C" stroke-width="2" opacity="0.7"/><path d="M30 190H226" stroke="#B8B19C" stroke-width="2" opacity="0.7"/><path d="M30 220H226" stroke="#B8B19C" stroke-width="2" opacity="0.7"/><circle cx="40" cy="40" r="2" fill="#1F2022" opacity="0.35"/><circle cx="40" cy="70" r="2" fill="#1F2022" opacity="0.35"/><circle cx="40" cy="100" r="2" fill="#1F2022" opacity="0.35"/><circle cx="40" cy="130" r="2" fill="#1F2022" opacity="0.35"/><circle cx="40" cy="160" r="2" fill="#1F2022" opacity="0.35"/><circle cx="40" cy="190" r="2" fill="#1F2022" opacity="0.35"/><circle cx="40" cy="220" r="2" fill="#1F2022" opacity="0.35"/><circle cx="70" cy="40" r="2" fill="#1F2022" opacity="0.35"/><circle cx="70" cy="70" r="2" fill="#1F2022" opacity="0.35"/><circle cx="70" cy="100" r="2" fill="#1F2022" opacity="0.35"/><circle cx="70" cy="130" r="2" fill="#1F2022" opacity="0.35"/><circle cx="70" cy="160" r="2" fill="#1F2022" opacity="0.35"/><circle cx="70" cy="190" r="2" fill="#1F2022" opacity="0.35"/><circle cx="70" cy="220" r="2" fill="#1F2022" opacity="0.35"/><circle cx="100" cy="40" r="2" fill="#1F2022" opacity="0.35"/><circle cx="100" cy="70" r="2" fill="#1F2022" opacity="0.35"/><circle cx="100" cy="100" r="2" fill="#1F2022" opacity="0.35"/><circle cx="100" cy="130" r="2" fill="#1F2022" opacity="0.35"/><circle cx="100" cy="160" r="2" fill="#1F2022" opacity="0.35"/><circle cx="100" cy="190" r="2" fill="#1F2022" opacity="0.35"/><circle cx="100" cy="220" r="2" fill="#1F2022" opacity="0.35"/><circle cx="130" cy="40" r="2" fill="#1F2022" opacity="0.35"/><circle cx="130" cy="70" r="2" fill="#1F2022" opacity="0.35"/><circle cx="130" cy="100" r="2" fill="#1F2022" opacity="0.35"/><circle cx="130" cy="130" r="2" fill="#1F2022" opacity="0.35"/><circle cx="130" cy="160" r="2" fill="#1F2022" opacity="0.35"/><circle cx="130" cy="190" r="2" fill="#1F2022" opacity="0.35"/><circle cx="130" cy="220" r="2" fill="#1F2022" opacity="0.35"/><circle cx="160" cy="40" r="2" fill="#1F2022" opacity="0.35"/><circle cx="160" cy="70" r="2" fill="#1F2022" opacity="0.35"/><circle cx="160" cy="100" r="2" fill="#1F2022" opacity="0.35"/><circle cx="160" cy="130" r="2" fill="#1F2022" opacity="0.35"/><circle cx="160" cy="160" r="2" fill="#1F2022" opacity="0.35"/><circle cx="160" cy="190" r="2" fill="#1F2022" opacity="0.35"/><circle cx="160" cy="220" r="2" fill="#1F2022" opacity="0.35"/><circle cx="190" cy="40" r="2" fill="#1F2022" opacity="0.35"/><circle cx="190" cy="70" r="2" fill="#1F2022" opacity="0.35"/><circle cx="190" cy="100" r="2" fill="#1F2022" opacity="0.35"/><circle cx="190" cy="130" r="2" fill="#1F2022" opacity="0.35"/><circle cx="190" cy="160" r="2" fill="#1F2022" opacity="0.35"/><circle cx="190" cy="190" r="2" fill="#1F2022" opacity="0.35"/><circle cx="190" cy="220" r="2" fill="#1F2022" opacity="0.35"/><circle cx="220" cy="40" r="2" fill="#1F2022" opacity="0.35"/><circle cx="220" cy="70" r="2" fill="#1F2022" opacity="0.35"/><circle cx="220" cy="100" r="2" fill="#1F2022" opacity="0.35"/><circle cx="220" cy="130" r="2" fill="#1F2022" opacity="0.35"/><circle cx="220" cy="160" r="2" fill="#1F2022" opacity="0.35"/><circle cx="220" cy="190" r="2" fill="#1F2022" opacity="0.35"/><circle cx="220" cy="220" r="2" fill="#1F2022" opacity="0.35"/>
</svg>
