<svg id="Livello_1" data-name="Livello 1" xmlns="http://www.w3.org/2000/svg" viewBox="0 0 280.66 186"><defs><style>.cls-1,.cls-2,.cls-7,.cls-9{fill:none;}.cls-1{stroke:#1f2022;}.cls-1,.cls-2,.cls-9{stroke-width:2px;}.cls-2{stroke:#b8b19c;}.cls-10,.cls-3,.cls-4,.cls-8{fill:#1f2022;}.cls-3{fill-opacity:0.35;}.cls-4,.cls-6,.cls-8{isolation:isolate;}.cls-4{font-size:22px;font-family:Arial-BoldMT, Arial;font-weight:700;}.cls-5{letter-spacing:-0.02em;}.cls-6{font-size:12px;fill:#4e4a3e;}.cls-6,.cls-8{font-family:ArialMT, Arial;}.cls-7{stroke:#4e4a3e;stroke-width:1.5px;}.cls-8{font-size:9px;}.cls-9{stroke:#f5d200;stroke-linecap:round;stroke-linejoin:round;}</style></defs><title>project_preview_card</title><rect class="cls-1" x="1" y="1" width="278.66" height="184" rx="8"/><rect class="cls-2" x="13" y="13" width="90" height="160" rx="6"/><circle class="cls-3" cx="69" cy="133" r="1.2"/><circle class="cls-3" cx="77" cy="133" r="1.2"/><circle class="cls-3" cx="85" cy="133" r="1.2"/><circle class="cls-3" cx="93" cy="133" r="1.2"/><circle class="cls-3" cx="69" cy="141" r="1.2"/><circle class="cls-3" cx="77" cy="141" r="1.2"/><circle class="cls-3" cx="85" cy="141" r="1.2"/><circle class="cls-3" cx="93" cy="141" r="1.2"/><circle class="cls-3" cx="69" cy="149" r="1.2"/><circle class="cls-3" cx="77" cy="149" r="1.2"/><circle class="cls-3" cx="85" cy="149" r="1.2"/><circle class="cls-3" cx="93" cy="149" r="1.2"/><circle class="cls-3" cx="69" cy="157" r="1.2"/><circle class="cls-3" cx="77" cy="157" r="1.2"/><circle class="cls-3" cx="85" cy="157" r="1.2"/><circle class="cls-3" cx="93" cy="157" r="1.2"/><text class="cls-4" transform="translate(119 51)">Project <tspan class="cls-5" x="80.7" y="0">T</tspan><tspan x="93.74" y="0">itle</tspan></text><text class="cls-6" transform="translate(119 75)">Short description goes here.</text><rect class="cls-7" x="119" y="95.8" width="34" height="20" rx="8"/><text class="cls-8" transform="translate(124 108.2)">UX/UI</text><rect class="cls-7" x="159" y="95.8" width="42" height="20" rx="8"/><text class="cls-8" transform="translate(165 108.2)">System</text><rect class="cls-7" x="119" y="121.8" width="32" height="20" rx="8"/><text class="cls-8" transform="translate(124.24 134.2)">Code</text><path class="cls-9" d="M265.28,192l16-16m-8,0h8v8" transform="translate(-15 -35)"/><g id="Livello_2" data-name="Livello 2"><g id="Livello_1-2" data-name="Livello 1-2"><path class="cls-10" d="M72.93,100c-.06,27.33.15,27.26,27.39,27.25a27.26,27.26,0,0,0-27.39,27.4c0-27.24.08-27.46-27.25-27.4C60.62,127.51,73.2,114.43,72.93,100Z" transform="translate(-15 -35)"/></g></g></svg>