<svg xmlns="http://www.w3.org/2000/svg" width="256" height="256" viewBox="0 0 256 256" fill="none">

<circle cx="28" cy="28" r="2" fill="#1F2022" fill-opacity="1.0"/>
<circle cx="46" cy="28" r="2" fill="#1F2022" fill-opacity="1.0"/>
<circle cx="64" cy="28" r="2" fill="#1F2022" fill-opacity="1.0"/>
<circle cx="82" cy="28" r="2" fill="#1F2022" fill-opacity="1.0"/>
<circle cx="100" cy="28" r="2" fill="#1F2022" fill-opacity="1.0"/>
<circle cx="118" cy="28" r="2" fill="#1F2022" fill-opacity="1.0"/>
<circle cx="136" cy="28" r="2" fill="#1F2022" fill-opacity="1.0"/>
<circle cx="154" cy="28" r="2" fill="#1F2022" fill-opacity="1.0"/>
<circle cx="172" cy="28" r="2" fill="#1F2022" fill-opacity="1.0"/>
<circle cx="190" cy="28" r="2" fill="#1F2022" fill-opacity="1.0"/>
<circle cx="208" cy="28" r="2" fill="#1F2022" fill-opacity="1.0"/>
<circle cx="226" cy="28" r="2" fill="#1F2022" fill-opacity="1.0"/>
<circle cx="28" cy="46" r="2" fill="#1F2022" fill-opacity="1.0"/>
<circle cx="46" cy="46" r="2" fill="#1F2022" fill-opacity="1.0"/>
<circle cx="64" cy="46" r="2" fill="#1F2022" fill-opacity="1.0"/>
<circle cx="82" cy="46" r="2" fill="#1F2022" fill-opacity="1.0"/>
<circle cx="100" cy="46" r="2" fill="#1F2022" fill-opacity="1.0"/>
<circle cx="118" cy="46" r="2" fill="#1F2022" fill-opacity="1.0"/>
<circle cx="136" cy="46" r="2" fill="#1F2022" fill-opacity="1.0"/>
<circle cx="154" cy="46" r="2" fill="#1F2022" fill-opacity="1.0"/>
<circle cx="172" cy="46" r="2" fill="#1F2022" fill-opacity="1.0"/>
<circle cx="190" cy="46" r="2" fill="#1F2022" fill-opacity="1.0"/>
<circle cx="208" cy="46" r="2" fill="#1F2022" fill-opacity="1.0"/>
<circle cx="226" cy="46" r="2" fill="#1F2022" fill-opacity="1.0"/>
<circle cx="28" cy="64" r="2" fill="#1F2022" fill-opacity="1.0"/>
<circle cx="46" cy="64" r="2" fill="#1F2022" fill-opacity="1.0"/>
<circle cx="64" cy="64" r="2" fill="#1F2022" fill-opacity="1.0"/>
<circle cx="82" cy="64" r="2" fill="#1F2022" fill-opacity="1.0"/>
<circle cx="100" cy="64" r="2" fill="#1F2022" fill-opacity="1.0"/>
<circle cx="118" cy="64" r="2" fill="#1F2022" fill-opacity="1.0"/>
<circle cx="136" cy="64" r="2" fill="#1F2022" fill-opacity="1.0"/>
<circle cx="154" cy="64" r="2" fill="#1F2022" fill-opacity="1.0"/>
<circle cx="172" cy="64" r="2" fill="#1F2022" fill-opacity="1.0"/>
<circle cx="190" cy="64" r="2" fill="#1F2022" fill-opacity="1.0"/>
<circle cx="208" cy="64" r="2" fill="#1F2022" fill-opacity="1.0"/>
<circle cx="226" cy="64" r="2" fill="#1F2022" fill-opacity="1.0"/>
<circle cx="28" cy="82" r="2" fill="#1F2022" fill-opacity="1.0"/>
<circle cx="46" cy="82" r="2" fill="#1F2022" fill-opacity="1.0"/>
<circle cx="64" cy="82" r="2" fill="#1F2022" fill-opacity="1.0"/>
<circle cx="82" cy="82" r="2" fill="#1F2022" fill-opacity="1.0"/>
<circle cx="100" cy="82" r="2" fill="#1F2022" fill-opacity="1.0"/>
<circle cx="118" cy="82" r="2" fill="#1F2022" fill-opacity="1.0"/>
<circle cx="136" cy="82" r="2" fill="#1F2022" fill-opacity="1.0"/>
<circle cx="154" cy="82" r="2" fill="#1F2022" fill-opacity="1.0"/>
<circle cx="172" cy="82" r="2" fill="#1F2022" fill-opacity="1.0"/>
<circle cx="190" cy="82" r="2" fill="#1F2022" fill-opacity="1.0"/>
<circle cx="208" cy="82" r="2" fill="#1F2022" fill-opacity="1.0"/>
<circle cx="226" cy="82" r="2" fill="#1F2022" fill-opacity="1.0"/>
<circle cx="28" cy="100" r="2" fill="#1F2022" fill-opacity="1.0"/>
<circle cx="46" cy="100" r="2" fill="#1F2022" fill-opacity="1.0"/>
<circle cx="64" cy="100" r="2" fill="#1F2022" fill-opacity="1.0"/>
<circle cx="82" cy="100" r="2" fill="#1F2022" fill-opacity="1.0"/>
<circle cx="100" cy="100" r="2" fill="#1F2022" fill-opacity="1.0"/>
<circle cx="118" cy="100" r="2" fill="#1F2022" fill-opacity="1.0"/>
<circle cx="136" cy="100" r="2" fill="#1F2022" fill-opacity="1.0"/>
<circle cx="154" cy="100" r="2" fill="#1F2022" fill-opacity="1.0"/>
<circle cx="172" cy="100" r="2" fill="#1F2022" fill-opacity="1.0"/>
<circle cx="190" cy="100" r="2" fill="#1F2022" fill-opacity="1.0"/>
<circle cx="208" cy="100" r="2" fill="#1F2022" fill-opacity="1.0"/>
<circle cx="226" cy="100" r="2" fill="#1F2022" fill-opacity="1.0"/>
<circle cx="28" cy="118" r="2" fill="#1F2022" fill-opacity="1.0"/>
<circle cx="46" cy="118" r="2" fill="#1F2022" fill-opacity="1.0"/>
<circle cx="64" cy="118" r="2" fill="#1F2022" fill-opacity="1.0"/>
<circle cx="82" cy="118" r="2" fill="#1F2022" fill-opacity="1.0"/>
<circle cx="100" cy="118" r="2" fill="#1F2022" fill-opacity="1.0"/>
<circle cx="118" cy="118" r="2" fill="#1F2022" fill-opacity="1.0"/>
<circle cx="136" cy="118" r="2" fill="#1F2022" fill-opacity="1.0"/>
<circle cx="154" cy="118" r="2" fill="#1F2022" fill-opacity="1.0"/>
<circle cx="172" cy="118" r="2" fill="#1F2022" fill-opacity="1.0"/>
<circle cx="190" cy="118" r="2" fill="#1F2022" fill-opacity="1.0"/>
<circle cx="208" cy="118" r="2" fill="#1F2022" fill-opacity="1.0"/>
<circle cx="226" cy="118" r="2" fill="#1F2022" fill-opacity="1.0"/>
<circle cx="28" cy="136" r="2" fill="#1F2022" fill-opacity="1.0"/>
<circle cx="46" cy="136" r="2" fill="#1F2022" fill-opacity="1.0"/>
<circle cx="64" cy="136" r="2" fill="#1F2022" fill-opacity="1.0"/>
<circle cx="82" cy="136" r="2" fill="#1F2022" fill-opacity="1.0"/>
<circle cx="100" cy="136" r="2" fill="#1F2022" fill-opacity="1.0"/>
<circle cx="118" cy="136" r="2" fill="#1F2022" fill-opacity="1.0"/>
<circle cx="136" cy="136" r="2" fill="#1F2022" fill-opacity="1.0"/>
<circle cx="154" cy="136" r="2" fill="#1F2022" fill-opacity="1.0"/>
<circle cx="172" cy="136" r="2" fill="#1F2022" fill-opacity="1.0"/>
<circle cx="190" cy="136" r="2" fill="#1F2022" fill-opacity="1.0"/>
<circle cx="208" cy="136" r="2" fill="#1F2022" fill-opacity="1.0"/>
<circle cx="226" cy="136" r="2" fill="#1F2022" fill-opacity="1.0"/>
<circle cx="28" cy="154" r="2" fill="#1F2022" fill-opacity="1.0"/>
<circle cx="46" cy="154" r="2" fill="#1F2022" fill-opacity="1.0"/>
<circle cx="64" cy="154" r="2" fill="#1F2022" fill-opacity="1.0"/>
<circle cx="82" cy="154" r="2" fill="#1F2022" fill-opacity="1.0"/>
<circle cx="100" cy="154" r="2" fill="#1F2022" fill-opacity="1.0"/>
<circle cx="118" cy="154" r="2" fill="#1F2022" fill-opacity="1.0"/>
<circle cx="136" cy="154" r="2" fill="#1F2022" fill-opacity="1.0"/>
<circle cx="154" cy="154" r="2" fill="#1F2022" fill-opacity="1.0"/>
<circle cx="172" cy="154" r="2" fill="#1F2022" fill-opacity="1.0"/>
<circle cx="190" cy="154" r="2" fill="#1F2022" fill-opacity="1.0"/>
<circle cx="208" cy="154" r="2" fill="#1F2022" fill-opacity="1.0"/>
<circle cx="226" cy="154" r="2" fill="#1F2022" fill-opacity="1.0"/>
<circle cx="28" cy="172" r="2" fill="#1F2022" fill-opacity="1.0"/>
<circle cx="46" cy="172" r="2" fill="#1F2022" fill-opacity="1.0"/>
<circle cx="64" cy="172" r="2" fill="#1F2022" fill-opacity="1.0"/>
<circle cx="82" cy="172" r="2" fill="#1F2022" fill-opacity="1.0"/>
<circle cx="100" cy="172" r="2" fill="#1F2022" fill-opacity="1.0"/>
<circle cx="118" cy="172" r="2" fill="#1F2022" fill-opacity="1.0"/>
<circle cx="136" cy="172" r="2" fill="#1F2022" fill-opacity="1.0"/>
<circle cx="154" cy="172" r="2" fill="#1F2022" fill-opacity="1.0"/>
<circle cx="172" cy="172" r="2" fill="#1F2022" fill-opacity="1.0"/>
<circle cx="190" cy="172" r="2" fill="#1F2022" fill-opacity="1.0"/>
<circle cx="208" cy="172" r="2" fill="#1F2022" fill-opacity="1.0"/>
<circle cx="226" cy="172" r="2" fill="#1F2022" fill-opacity="1.0"/>
<circle cx="28" cy="190" r="2" fill="#1F2022" fill-opacity="1.0"/>
<circle cx="46" cy="190" r="2" fill="#1F2022" fill-opacity="1.0"/>
<circle cx="64" cy="190" r="2" fill="#1F2022" fill-opacity="1.0"/>
<circle cx="82" cy="190" r="2" fill="#1F2022" fill-opacity="1.0"/>
<circle cx="100" cy="190" r="2" fill="#1F2022" fill-opacity="1.0"/>
<circle cx="118" cy="190" r="2" fill="#1F2022" fill-opacity="1.0"/>
<circle cx="136" cy="190" r="2" fill="#1F2022" fill-opacity="1.0"/>
<circle cx="154" cy="190" r="2" fill="#1F2022" fill-opacity="1.0"/>
<circle cx="172" cy="190" r="2" fill="#1F2022" fill-opacity="1.0"/>
<circle cx="190" cy="190" r="2" fill="#1F2022" fill-opacity="1.0"/>
<circle cx="208" cy="190" r="2" fill="#1F2022" fill-opacity="1.0"/>
<circle cx="226" cy="190" r="2" fill="#1F2022" fill-opacity="1.0"/>
<circle cx="28" cy="208" r="2" fill="#1F2022" fill-opacity="1.0"/>
<circle cx="46" cy="208" r="2" fill="#1F2022" fill-opacity="1.0"/>
<circle cx="64" cy="208" r="2" fill="#1F2022" fill-opacity="1.0"/>
<circle cx="82" cy="208" r="2" fill="#1F2022" fill-opacity="1.0"/>
<circle cx="100" cy="208" r="2" fill="#1F2022" fill-opacity="1.0"/>
<circle cx="118" cy="208" r="2" fill="#1F2022" fill-opacity="1.0"/>
<circle cx="136" cy="208" r="2" fill="#1F2022" fill-opacity="1.0"/>
<circle cx="154" cy="208" r="2" fill="#1F2022" fill-opacity="1.0"/>
<circle cx="172" cy="208" r="2" fill="#1F2022" fill-opacity="1.0"/>
<circle cx="190" cy="208" r="2" fill="#1F2022" fill-opacity="1.0"/>
<circle cx="208" cy="208" r="2" fill="#1F2022" fill-opacity="1.0"/>
<circle cx="226" cy="208" r="2" fill="#1F2022" fill-opacity="1.0"/>
<circle cx="28" cy="226" r="2" fill="#1F2022" fill-opacity="1.0"/>
<circle cx="46" cy="226" r="2" fill="#1F2022" fill-opacity="1.0"/>
<circle cx="64" cy="226" r="2" fill="#1F2022" fill-opacity="1.0"/>
<circle cx="82" cy="226" r="2" fill="#1F2022" fill-opacity="1.0"/>
<circle cx="100" cy="226" r="2" fill="#1F2022" fill-opacity="1.0"/>
<circle cx="118" cy="226" r="2" fill="#1F2022" fill-opacity="1.0"/>
<circle cx="136" cy="226" r="2" fill="#1F2022" fill-opacity="1.0"/>
<circle cx="154" cy="226" r="2" fill="#1F2022" fill-opacity="1.0"/>
<circle cx="172" cy="226" r="2" fill="#1F2022" fill-opacity="1.0"/>
<circle cx="190" cy="226" r="2" fill="#1F2022" fill-opacity="1.0"/>
<circle cx="208" cy="226" r="2" fill="#1F2022" fill-opacity="1.0"/>
<circle cx="226" cy="226" r="2" fill="#1F2022" fill-opacity="1.0"/>
</svg>
