<svg xmlns="http://www.w3.org/2000/svg" width="256" height="256" viewBox="0 0 256 256" fill="none">

<circle cx="20" cy="20" r="1.8" fill="#1F2022" fill-opacity="0.55"/>
<circle cx="32" cy="20" r="1.8" fill="#1F2022" fill-opacity="0.55"/>
<circle cx="44" cy="20" r="1.8" fill="#1F2022" fill-opacity="0.55"/>
<circle cx="56" cy="20" r="1.8" fill="#1F2022" fill-opacity="0.55"/>
<circle cx="68" cy="20" r="1.8" fill="#1F2022" fill-opacity="0.55"/>
<circle cx="80" cy="20" r="1.8" fill="#1F2022" fill-opacity="0.55"/>
<circle cx="92" cy="20" r="1.8" fill="#1F2022" fill-opacity="0.55"/>
<circle cx="104" cy="20" r="1.8" fill="#1F2022" fill-opacity="0.55"/>
<circle cx="116" cy="20" r="1.8" fill="#1F2022" fill-opacity="0.55"/>
<circle cx="128" cy="20" r="1.8" fill="#1F2022" fill-opacity="0.55"/>
<circle cx="140" cy="20" r="1.8" fill="#1F2022" fill-opacity="0.55"/>
<circle cx="152" cy="20" r="1.8" fill="#1F2022" fill-opacity="0.55"/>
<circle cx="164" cy="20" r="1.8" fill="#1F2022" fill-opacity="0.55"/>
<circle cx="176" cy="20" r="1.8" fill="#1F2022" fill-opacity="0.55"/>
<circle cx="188" cy="20" r="1.8" fill="#1F2022" fill-opacity="0.55"/>
<circle cx="200" cy="20" r="1.8" fill="#1F2022" fill-opacity="0.55"/>
<circle cx="212" cy="20" r="1.8" fill="#1F2022" fill-opacity="0.55"/>
<circle cx="224" cy="20" r="1.8" fill="#1F2022" fill-opacity="0.55"/>
<circle cx="20" cy="32" r="1.8" fill="#1F2022" fill-opacity="0.55"/>
<circle cx="32" cy="32" r="1.8" fill="#1F2022" fill-opacity="0.55"/>
<circle cx="44" cy="32" r="1.8" fill="#1F2022" fill-opacity="0.55"/>
<circle cx="56" cy="32" r="1.8" fill="#1F2022" fill-opacity="0.55"/>
<circle cx="68" cy="32" r="1.8" fill="#1F2022" fill-opacity="0.55"/>
<circle cx="80" cy="32" r="1.8" fill="#1F2022" fill-opacity="0.55"/>
<circle cx="92" cy="32" r="1.8" fill="#1F2022" fill-opacity="0.55"/>
<circle cx="104" cy="32" r="1.8" fill="#1F2022" fill-opacity="0.55"/>
<circle cx="116" cy="32" r="1.8" fill="#1F2022" fill-opacity="0.55"/>
<circle cx="128" cy="32" r="1.8" fill="#1F2022" fill-opacity="0.55"/>
<circle cx="140" cy="32" r="1.8" fill="#1F2022" fill-opacity="0.55"/>
<circle cx="152" cy="32" r="1.8" fill="#1F2022" fill-opacity="0.55"/>
<circle cx="164" cy="32" r="1.8" fill="#1F2022" fill-opacity="0.55"/>
<circle cx="176" cy="32" r="1.8" fill="#1F2022" fill-opacity="0.55"/>
<circle cx="188" cy="32" r="1.8" fill="#1F2022" fill-opacity="0.55"/>
<circle cx="200" cy="32" r="1.8" fill="#1F2022" fill-opacity="0.55"/>
<circle cx="212" cy="32" r="1.8" fill="#1F2022" fill-opacity="0.55"/>
<circle cx="224" cy="32" r="1.8" fill="#1F2022" fill-opacity="0.55"/>
<circle cx="20" cy="44" r="1.8" fill="#1F2022" fill-opacity="0.55"/>
<circle cx="32" cy="44" r="1.8" fill="#1F2022" fill-opacity="0.55"/>
<circle cx="44" cy="44" r="1.8" fill="#1F2022" fill-opacity="0.55"/>
<circle cx="56" cy="44" r="1.8" fill="#1F2022" fill-opacity="0.55"/>
<circle cx="68" cy="44" r="1.8" fill="#1F2022" fill-opacity="0.55"/>
<circle cx="80" cy="44" r="1.8" fill="#1F2022" fill-opacity="0.55"/>
<circle cx="92" cy="44" r="1.8" fill="#1F2022" fill-opacity="0.55"/>
<circle cx="104" cy="44" r="1.8" fill="#1F2022" fill-opacity="0.55"/>
<circle cx="116" cy="44" r="1.8" fill="#1F2022" fill-opacity="0.55"/>
<circle cx="128" cy="44" r="1.8" fill="#1F2022" fill-opacity="0.55"/>
<circle cx="140" cy="44" r="1.8" fill="#1F2022" fill-opacity="0.55"/>
<circle cx="152" cy="44" r="1.8" fill="#1F2022" fill-opacity="0.55"/>
<circle cx="164" cy="44" r="1.8" fill="#1F2022" fill-opacity="0.55"/>
<circle cx="176" cy="44" r="1.8" fill="#1F2022" fill-opacity="0.55"/>
<circle cx="188" cy="44" r="1.8" fill="#1F2022" fill-opacity="0.55"/>
<circle cx="200" cy="44" r="1.8" fill="#1F2022" fill-opacity="0.55"/>
<circle cx="212" cy="44" r="1.8" fill="#1F2022" fill-opacity="0.55"/>
<circle cx="224" cy="44" r="1.8" fill="#1F2022" fill-opacity="0.55"/>
<circle cx="20" cy="56" r="1.8" fill="#1F2022" fill-opacity="0.55"/>
<circle cx="32" cy="56" r="1.8" fill="#1F2022" fill-opacity="0.55"/>
<circle cx="44" cy="56" r="1.8" fill="#1F2022" fill-opacity="0.55"/>
<circle cx="56" cy="56" r="1.8" fill="#1F2022" fill-opacity="0.55"/>
<circle cx="68" cy="56" r="1.8" fill="#1F2022" fill-opacity="0.55"/>
<circle cx="80" cy="56" r="1.8" fill="#1F2022" fill-opacity="0.55"/>
<circle cx="92" cy="56" r="1.8" fill="#1F2022" fill-opacity="0.55"/>
<circle cx="104" cy="56" r="1.8" fill="#1F2022" fill-opacity="0.55"/>
<circle cx="116" cy="56" r="1.8" fill="#1F2022" fill-opacity="0.55"/>
<circle cx="128" cy="56" r="1.8" fill="#1F2022" fill-opacity="0.55"/>
<circle cx="140" cy="56" r="1.8" fill="#1F2022" fill-opacity="0.55"/>
<circle cx="152" cy="56" r="1.8" fill="#1F2022" fill-opacity="0.55"/>
<circle cx="164" cy="56" r="1.8" fill="#1F2022" fill-opacity="0.55"/>
<circle cx="176" cy="56" r="1.8" fill="#1F2022" fill-opacity="0.55"/>
<circle cx="188" cy="56" r="1.8" fill="#1F2022" fill-opacity="0.55"/>
<circle cx="200" cy="56" r="1.8" fill="#1F2022" fill-opacity="0.55"/>
<circle cx="212" cy="56" r="1.8" fill="#1F2022" fill-opacity="0.55"/>
<circle cx="224" cy="56" r="1.8" fill="#1F2022" fill-opacity="0.55"/>
<circle cx="20" cy="68" r="1.8" fill="#1F2022" fill-opacity="0.55"/>
<circle cx="32" cy="68" r="1.8" fill="#1F2022" fill-opacity="0.55"/>
<circle cx="44" cy="68" r="1.8" fill="#1F2022" fill-opacity="0.55"/>
<circle cx="56" cy="68" r="1.8" fill="#1F2022" fill-opacity="0.55"/>
<circle cx="68" cy="68" r="1.8" fill="#1F2022" fill-opacity="0.55"/>
<circle cx="80" cy="68" r="1.8" fill="#1F2022" fill-opacity="0.55"/>
<circle cx="92" cy="68" r="1.8" fill="#1F2022" fill-opacity="0.55"/>
<circle cx="104" cy="68" r="1.8" fill="#1F2022" fill-opacity="0.55"/>
<circle cx="116" cy="68" r="1.8" fill="#1F2022" fill-opacity="0.55"/>
<circle cx="128" cy="68" r="1.8" fill="#1F2022" fill-opacity="0.55"/>
<circle cx="140" cy="68" r="1.8" fill="#1F2022" fill-opacity="0.55"/>
<circle cx="152" cy="68" r="1.8" fill="#1F2022" fill-opacity="0.55"/>
<circle cx="164" cy="68" r="1.8" fill="#1F2022" fill-opacity="0.55"/>
<circle cx="176" cy="68" r="1.8" fill="#1F2022" fill-opacity="0.55"/>
<circle cx="188" cy="68" r="1.8" fill="#1F2022" fill-opacity="0.55"/>
<circle cx="200" cy="68" r="1.8" fill="#1F2022" fill-opacity="0.55"/>
<circle cx="212" cy="68" r="1.8" fill="#1F2022" fill-opacity="0.55"/>
<circle cx="224" cy="68" r="1.8" fill="#1F2022" fill-opacity="0.55"/>
<circle cx="20" cy="80" r="1.8" fill="#1F2022" fill-opacity="0.55"/>
<circle cx="32" cy="80" r="1.8" fill="#1F2022" fill-opacity="0.55"/>
<circle cx="44" cy="80" r="1.8" fill="#1F2022" fill-opacity="0.55"/>
<circle cx="56" cy="80" r="1.8" fill="#1F2022" fill-opacity="0.55"/>
<circle cx="68" cy="80" r="1.8" fill="#1F2022" fill-opacity="0.55"/>
<circle cx="80" cy="80" r="1.8" fill="#1F2022" fill-opacity="0.55"/>
<circle cx="92" cy="80" r="1.8" fill="#1F2022" fill-opacity="0.55"/>
<circle cx="104" cy="80" r="1.8" fill="#1F2022" fill-opacity="0.55"/>
<circle cx="116" cy="80" r="1.8" fill="#1F2022" fill-opacity="0.55"/>
<circle cx="128" cy="80" r="1.8" fill="#1F2022" fill-opacity="0.55"/>
<circle cx="140" cy="80" r="1.8" fill="#1F2022" fill-opacity="0.55"/>
<circle cx="152" cy="80" r="1.8" fill="#1F2022" fill-opacity="0.55"/>
<circle cx="164" cy="80" r="1.8" fill="#1F2022" fill-opacity="0.55"/>
<circle cx="176" cy="80" r="1.8" fill="#1F2022" fill-opacity="0.55"/>
<circle cx="188" cy="80" r="1.8" fill="#1F2022" fill-opacity="0.55"/>
<circle cx="200" cy="80" r="1.8" fill="#1F2022" fill-opacity="0.55"/>
<circle cx="212" cy="80" r="1.8" fill="#1F2022" fill-opacity="0.55"/>
<circle cx="224" cy="80" r="1.8" fill="#1F2022" fill-opacity="0.55"/>
<circle cx="20" cy="92" r="1.8" fill="#1F2022" fill-opacity="0.55"/>
<circle cx="32" cy="92" r="1.8" fill="#1F2022" fill-opacity="0.55"/>
<circle cx="44" cy="92" r="1.8" fill="#1F2022" fill-opacity="0.55"/>
<circle cx="56" cy="92" r="1.8" fill="#1F2022" fill-opacity="0.55"/>
<circle cx="68" cy="92" r="1.8" fill="#1F2022" fill-opacity="0.55"/>
<circle cx="80" cy="92" r="1.8" fill="#1F2022" fill-opacity="0.55"/>
<circle cx="92" cy="92" r="1.8" fill="#1F2022" fill-opacity="0.55"/>
<circle cx="104" cy="92" r="1.8" fill="#1F2022" fill-opacity="0.55"/>
<circle cx="116" cy="92" r="1.8" fill="#1F2022" fill-opacity="0.55"/>
<circle cx="128" cy="92" r="1.8" fill="#1F2022" fill-opacity="0.55"/>
<circle cx="140" cy="92" r="1.8" fill="#1F2022" fill-opacity="0.55"/>
<circle cx="152" cy="92" r="1.8" fill="#1F2022" fill-opacity="0.55"/>
<circle cx="164" cy="92" r="1.8" fill="#1F2022" fill-opacity="0.55"/>
<circle cx="176" cy="92" r="1.8" fill="#1F2022" fill-opacity="0.55"/>
<circle cx="188" cy="92" r="1.8" fill="#1F2022" fill-opacity="0.55"/>
<circle cx="200" cy="92" r="1.8" fill="#1F2022" fill-opacity="0.55"/>
<circle cx="212" cy="92" r="1.8" fill="#1F2022" fill-opacity="0.55"/>
<circle cx="224" cy="92" r="1.8" fill="#1F2022" fill-opacity="0.55"/>
<circle cx="20" cy="104" r="1.8" fill="#1F2022" fill-opacity="0.55"/>
<circle cx="32" cy="104" r="1.8" fill="#1F2022" fill-opacity="0.55"/>
<circle cx="44" cy="104" r="1.8" fill="#1F2022" fill-opacity="0.55"/>
<circle cx="56" cy="104" r="1.8" fill="#1F2022" fill-opacity="0.55"/>
<circle cx="68" cy="104" r="1.8" fill="#1F2022" fill-opacity="0.55"/>
<circle cx="80" cy="104" r="1.8" fill="#1F2022" fill-opacity="0.55"/>
<circle cx="92" cy="104" r="1.8" fill="#1F2022" fill-opacity="0.55"/>
<circle cx="104" cy="104" r="1.8" fill="#1F2022" fill-opacity="0.55"/>
<circle cx="116" cy="104" r="1.8" fill="#1F2022" fill-opacity="0.55"/>
<circle cx="128" cy="104" r="1.8" fill="#1F2022" fill-opacity="0.55"/>
<circle cx="140" cy="104" r="1.8" fill="#1F2022" fill-opacity="0.55"/>
<circle cx="152" cy="104" r="1.8" fill="#1F2022" fill-opacity="0.55"/>
<circle cx="164" cy="104" r="1.8" fill="#1F2022" fill-opacity="0.55"/>
<circle cx="176" cy="104" r="1.8" fill="#1F2022" fill-opacity="0.55"/>
<circle cx="188" cy="104" r="1.8" fill="#1F2022" fill-opacity="0.55"/>
<circle cx="200" cy="104" r="1.8" fill="#1F2022" fill-opacity="0.55"/>
<circle cx="212" cy="104" r="1.8" fill="#1F2022" fill-opacity="0.55"/>
<circle cx="224" cy="104" r="1.8" fill="#1F2022" fill-opacity="0.55"/>
<circle cx="20" cy="116" r="1.8" fill="#1F2022" fill-opacity="0.55"/>
<circle cx="32" cy="116" r="1.8" fill="#1F2022" fill-opacity="0.55"/>
<circle cx="44" cy="116" r="1.8" fill="#1F2022" fill-opacity="0.55"/>
<circle cx="56" cy="116" r="1.8" fill="#1F2022" fill-opacity="0.55"/>
<circle cx="68" cy="116" r="1.8" fill="#1F2022" fill-opacity="0.55"/>
<circle cx="80" cy="116" r="1.8" fill="#1F2022" fill-opacity="0.55"/>
<circle cx="92" cy="116" r="1.8" fill="#1F2022" fill-opacity="0.55"/>
<circle cx="104" cy="116" r="1.8" fill="#1F2022" fill-opacity="0.55"/>
<circle cx="116" cy="116" r="1.8" fill="#1F2022" fill-opacity="0.55"/>
<circle cx="128" cy="116" r="1.8" fill="#1F2022" fill-opacity="0.55"/>
<circle cx="140" cy="116" r="1.8" fill="#1F2022" fill-opacity="0.55"/>
<circle cx="152" cy="116" r="1.8" fill="#1F2022" fill-opacity="0.55"/>
<circle cx="164" cy="116" r="1.8" fill="#1F2022" fill-opacity="0.55"/>
<circle cx="176" cy="116" r="1.8" fill="#1F2022" fill-opacity="0.55"/>
<circle cx="188" cy="116" r="1.8" fill="#1F2022" fill-opacity="0.55"/>
<circle cx="200" cy="116" r="1.8" fill="#1F2022" fill-opacity="0.55"/>
<circle cx="212" cy="116" r="1.8" fill="#1F2022" fill-opacity="0.55"/>
<circle cx="224" cy="116" r="1.8" fill="#1F2022" fill-opacity="0.55"/>
<circle cx="20" cy="128" r="1.8" fill="#1F2022" fill-opacity="0.55"/>
<circle cx="32" cy="128" r="1.8" fill="#1F2022" fill-opacity="0.55"/>
<circle cx="44" cy="128" r="1.8" fill="#1F2022" fill-opacity="0.55"/>
<circle cx="56" cy="128" r="1.8" fill="#1F2022" fill-opacity="0.55"/>
<circle cx="68" cy="128" r="1.8" fill="#1F2022" fill-opacity="0.55"/>
<circle cx="80" cy="128" r="1.8" fill="#1F2022" fill-opacity="0.55"/>
<circle cx="92" cy="128" r="1.8" fill="#1F2022" fill-opacity="0.55"/>
<circle cx="104" cy="128" r="1.8" fill="#1F2022" fill-opacity="0.55"/>
<circle cx="116" cy="128" r="1.8" fill="#1F2022" fill-opacity="0.55"/>
<circle cx="128" cy="128" r="1.8" fill="#1F2022" fill-opacity="0.55"/>
<circle cx="140" cy="128" r="1.8" fill="#1F2022" fill-opacity="0.55"/>
<circle cx="152" cy="128" r="1.8" fill="#1F2022" fill-opacity="0.55"/>
<circle cx="164" cy="128" r="1.8" fill="#1F2022" fill-opacity="0.55"/>
<circle cx="176" cy="128" r="1.8" fill="#1F2022" fill-opacity="0.55"/>
<circle cx="188" cy="128" r="1.8" fill="#1F2022" fill-opacity="0.55"/>
<circle cx="200" cy="128" r="1.8" fill="#1F2022" fill-opacity="0.55"/>
<circle cx="212" cy="128" r="1.8" fill="#1F2022" fill-opacity="0.55"/>
<circle cx="224" cy="128" r="1.8" fill="#1F2022" fill-opacity="0.55"/>
<circle cx="20" cy="140" r="1.8" fill="#1F2022" fill-opacity="0.55"/>
<circle cx="32" cy="140" r="1.8" fill="#1F2022" fill-opacity="0.55"/>
<circle cx="44" cy="140" r="1.8" fill="#1F2022" fill-opacity="0.55"/>
<circle cx="56" cy="140" r="1.8" fill="#1F2022" fill-opacity="0.55"/>
<circle cx="68" cy="140" r="1.8" fill="#1F2022" fill-opacity="0.55"/>
<circle cx="80" cy="140" r="1.8" fill="#1F2022" fill-opacity="0.55"/>
<circle cx="92" cy="140" r="1.8" fill="#1F2022" fill-opacity="0.55"/>
<circle cx="104" cy="140" r="1.8" fill="#1F2022" fill-opacity="0.55"/>
<circle cx="116" cy="140" r="1.8" fill="#1F2022" fill-opacity="0.55"/>
<circle cx="128" cy="140" r="1.8" fill="#1F2022" fill-opacity="0.55"/>
<circle cx="140" cy="140" r="1.8" fill="#1F2022" fill-opacity="0.55"/>
<circle cx="152" cy="140" r="1.8" fill="#1F2022" fill-opacity="0.55"/>
<circle cx="164" cy="140" r="1.8" fill="#1F2022" fill-opacity="0.55"/>
<circle cx="176" cy="140" r="1.8" fill="#1F2022" fill-opacity="0.55"/>
<circle cx="188" cy="140" r="1.8" fill="#1F2022" fill-opacity="0.55"/>
<circle cx="200" cy="140" r="1.8" fill="#1F2022" fill-opacity="0.55"/>
<circle cx="212" cy="140" r="1.8" fill="#1F2022" fill-opacity="0.55"/>
<circle cx="224" cy="140" r="1.8" fill="#1F2022" fill-opacity="0.55"/>
<circle cx="20" cy="152" r="1.8" fill="#1F2022" fill-opacity="0.55"/>
<circle cx="32" cy="152" r="1.8" fill="#1F2022" fill-opacity="0.55"/>
<circle cx="44" cy="152" r="1.8" fill="#1F2022" fill-opacity="0.55"/>
<circle cx="56" cy="152" r="1.8" fill="#1F2022" fill-opacity="0.55"/>
<circle cx="68" cy="152" r="1.8" fill="#1F2022" fill-opacity="0.55"/>
<circle cx="80" cy="152" r="1.8" fill="#1F2022" fill-opacity="0.55"/>
<circle cx="92" cy="152" r="1.8" fill="#1F2022" fill-opacity="0.55"/>
<circle cx="104" cy="152" r="1.8" fill="#1F2022" fill-opacity="0.55"/>
<circle cx="116" cy="152" r="1.8" fill="#1F2022" fill-opacity="0.55"/>
<circle cx="128" cy="152" r="1.8" fill="#1F2022" fill-opacity="0.55"/>
<circle cx="140" cy="152" r="1.8" fill="#1F2022" fill-opacity="0.55"/>
<circle cx="152" cy="152" r="1.8" fill="#1F2022" fill-opacity="0.55"/>
<circle cx="164" cy="152" r="1.8" fill="#1F2022" fill-opacity="0.55"/>
<circle cx="176" cy="152" r="1.8" fill="#1F2022" fill-opacity="0.55"/>
<circle cx="188" cy="152" r="1.8" fill="#1F2022" fill-opacity="0.55"/>
<circle cx="200" cy="152" r="1.8" fill="#1F2022" fill-opacity="0.55"/>
<circle cx="212" cy="152" r="1.8" fill="#1F2022" fill-opacity="0.55"/>
<circle cx="224" cy="152" r="1.8" fill="#1F2022" fill-opacity="0.55"/>
<circle cx="20" cy="164" r="1.8" fill="#1F2022" fill-opacity="0.55"/>
<circle cx="32" cy="164" r="1.8" fill="#1F2022" fill-opacity="0.55"/>
<circle cx="44" cy="164" r="1.8" fill="#1F2022" fill-opacity="0.55"/>
<circle cx="56" cy="164" r="1.8" fill="#1F2022" fill-opacity="0.55"/>
<circle cx="68" cy="164" r="1.8" fill="#1F2022" fill-opacity="0.55"/>
<circle cx="80" cy="164" r="1.8" fill="#1F2022" fill-opacity="0.55"/>
<circle cx="92" cy="164" r="1.8" fill="#1F2022" fill-opacity="0.55"/>
<circle cx="104" cy="164" r="1.8" fill="#1F2022" fill-opacity="0.55"/>
<circle cx="116" cy="164" r="1.8" fill="#1F2022" fill-opacity="0.55"/>
<circle cx="128" cy="164" r="1.8" fill="#1F2022" fill-opacity="0.55"/>
<circle cx="140" cy="164" r="1.8" fill="#1F2022" fill-opacity="0.55"/>
<circle cx="152" cy="164" r="1.8" fill="#1F2022" fill-opacity="0.55"/>
<circle cx="164" cy="164" r="1.8" fill="#1F2022" fill-opacity="0.55"/>
<circle cx="176" cy="164" r="1.8" fill="#1F2022" fill-opacity="0.55"/>
<circle cx="188" cy="164" r="1.8" fill="#1F2022" fill-opacity="0.55"/>
<circle cx="200" cy="164" r="1.8" fill="#1F2022" fill-opacity="0.55"/>
<circle cx="212" cy="164" r="1.8" fill="#1F2022" fill-opacity="0.55"/>
<circle cx="224" cy="164" r="1.8" fill="#1F2022" fill-opacity="0.55"/>
<circle cx="20" cy="176" r="1.8" fill="#1F2022" fill-opacity="0.55"/>
<circle cx="32" cy="176" r="1.8" fill="#1F2022" fill-opacity="0.55"/>
<circle cx="44" cy="176" r="1.8" fill="#1F2022" fill-opacity="0.55"/>
<circle cx="56" cy="176" r="1.8" fill="#1F2022" fill-opacity="0.55"/>
<circle cx="68" cy="176" r="1.8" fill="#1F2022" fill-opacity="0.55"/>
<circle cx="80" cy="176" r="1.8" fill="#1F2022" fill-opacity="0.55"/>
<circle cx="92" cy="176" r="1.8" fill="#1F2022" fill-opacity="0.55"/>
<circle cx="104" cy="176" r="1.8" fill="#1F2022" fill-opacity="0.55"/>
<circle cx="116" cy="176" r="1.8" fill="#1F2022" fill-opacity="0.55"/>
<circle cx="128" cy="176" r="1.8" fill="#1F2022" fill-opacity="0.55"/>
<circle cx="140" cy="176" r="1.8" fill="#1F2022" fill-opacity="0.55"/>
<circle cx="152" cy="176" r="1.8" fill="#1F2022" fill-opacity="0.55"/>
<circle cx="164" cy="176" r="1.8" fill="#1F2022" fill-opacity="0.55"/>
<circle cx="176" cy="176" r="1.8" fill="#1F2022" fill-opacity="0.55"/>
<circle cx="188" cy="176" r="1.8" fill="#1F2022" fill-opacity="0.55"/>
<circle cx="200" cy="176" r="1.8" fill="#1F2022" fill-opacity="0.55"/>
<circle cx="212" cy="176" r="1.8" fill="#1F2022" fill-opacity="0.55"/>
<circle cx="224" cy="176" r="1.8" fill="#1F2022" fill-opacity="0.55"/>
<circle cx="20" cy="188" r="1.8" fill="#1F2022" fill-opacity="0.55"/>
<circle cx="32" cy="188" r="1.8" fill="#1F2022" fill-opacity="0.55"/>
<circle cx="44" cy="188" r="1.8" fill="#1F2022" fill-opacity="0.55"/>
<circle cx="56" cy="188" r="1.8" fill="#1F2022" fill-opacity="0.55"/>
<circle cx="68" cy="188" r="1.8" fill="#1F2022" fill-opacity="0.55"/>
<circle cx="80" cy="188" r="1.8" fill="#1F2022" fill-opacity="0.55"/>
<circle cx="92" cy="188" r="1.8" fill="#1F2022" fill-opacity="0.55"/>
<circle cx="104" cy="188" r="1.8" fill="#1F2022" fill-opacity="0.55"/>
<circle cx="116" cy="188" r="1.8" fill="#1F2022" fill-opacity="0.55"/>
<circle cx="128" cy="188" r="1.8" fill="#1F2022" fill-opacity="0.55"/>
<circle cx="140" cy="188" r="1.8" fill="#1F2022" fill-opacity="0.55"/>
<circle cx="152" cy="188" r="1.8" fill="#1F2022" fill-opacity="0.55"/>
<circle cx="164" cy="188" r="1.8" fill="#1F2022" fill-opacity="0.55"/>
<circle cx="176" cy="188" r="1.8" fill="#1F2022" fill-opacity="0.55"/>
<circle cx="188" cy="188" r="1.8" fill="#1F2022" fill-opacity="0.55"/>
<circle cx="200" cy="188" r="1.8" fill="#1F2022" fill-opacity="0.55"/>
<circle cx="212" cy="188" r="1.8" fill="#1F2022" fill-opacity="0.55"/>
<circle cx="224" cy="188" r="1.8" fill="#1F2022" fill-opacity="0.55"/>
<circle cx="20" cy="200" r="1.8" fill="#1F2022" fill-opacity="0.55"/>
<circle cx="32" cy="200" r="1.8" fill="#1F2022" fill-opacity="0.55"/>
<circle cx="44" cy="200" r="1.8" fill="#1F2022" fill-opacity="0.55"/>
<circle cx="56" cy="200" r="1.8" fill="#1F2022" fill-opacity="0.55"/>
<circle cx="68" cy="200" r="1.8" fill="#1F2022" fill-opacity="0.55"/>
<circle cx="80" cy="200" r="1.8" fill="#1F2022" fill-opacity="0.55"/>
<circle cx="92" cy="200" r="1.8" fill="#1F2022" fill-opacity="0.55"/>
<circle cx="104" cy="200" r="1.8" fill="#1F2022" fill-opacity="0.55"/>
<circle cx="116" cy="200" r="1.8" fill="#1F2022" fill-opacity="0.55"/>
<circle cx="128" cy="200" r="1.8" fill="#1F2022" fill-opacity="0.55"/>
<circle cx="140" cy="200" r="1.8" fill="#1F2022" fill-opacity="0.55"/>
<circle cx="152" cy="200" r="1.8" fill="#1F2022" fill-opacity="0.55"/>
<circle cx="164" cy="200" r="1.8" fill="#1F2022" fill-opacity="0.55"/>
<circle cx="176" cy="200" r="1.8" fill="#1F2022" fill-opacity="0.55"/>
<circle cx="188" cy="200" r="1.8" fill="#1F2022" fill-opacity="0.55"/>
<circle cx="200" cy="200" r="1.8" fill="#1F2022" fill-opacity="0.55"/>
<circle cx="212" cy="200" r="1.8" fill="#1F2022" fill-opacity="0.55"/>
<circle cx="224" cy="200" r="1.8" fill="#1F2022" fill-opacity="0.55"/>
<circle cx="20" cy="212" r="1.8" fill="#1F2022" fill-opacity="0.55"/>
<circle cx="32" cy="212" r="1.8" fill="#1F2022" fill-opacity="0.55"/>
<circle cx="44" cy="212" r="1.8" fill="#1F2022" fill-opacity="0.55"/>
<circle cx="56" cy="212" r="1.8" fill="#1F2022" fill-opacity="0.55"/>
<circle cx="68" cy="212" r="1.8" fill="#1F2022" fill-opacity="0.55"/>
<circle cx="80" cy="212" r="1.8" fill="#1F2022" fill-opacity="0.55"/>
<circle cx="92" cy="212" r="1.8" fill="#1F2022" fill-opacity="0.55"/>
<circle cx="104" cy="212" r="1.8" fill="#1F2022" fill-opacity="0.55"/>
<circle cx="116" cy="212" r="1.8" fill="#1F2022" fill-opacity="0.55"/>
<circle cx="128" cy="212" r="1.8" fill="#1F2022" fill-opacity="0.55"/>
<circle cx="140" cy="212" r="1.8" fill="#1F2022" fill-opacity="0.55"/>
<circle cx="152" cy="212" r="1.8" fill="#1F2022" fill-opacity="0.55"/>
<circle cx="164" cy="212" r="1.8" fill="#1F2022" fill-opacity="0.55"/>
<circle cx="176" cy="212" r="1.8" fill="#1F2022" fill-opacity="0.55"/>
<circle cx="188" cy="212" r="1.8" fill="#1F2022" fill-opacity="0.55"/>
<circle cx="200" cy="212" r="1.8" fill="#1F2022" fill-opacity="0.55"/>
<circle cx="212" cy="212" r="1.8" fill="#1F2022" fill-opacity="0.55"/>
<circle cx="224" cy="212" r="1.8" fill="#1F2022" fill-opacity="0.55"/>
<circle cx="20" cy="224" r="1.8" fill="#1F2022" fill-opacity="0.55"/>
<circle cx="32" cy="224" r="1.8" fill="#1F2022" fill-opacity="0.55"/>
<circle cx="44" cy="224" r="1.8" fill="#1F2022" fill-opacity="0.55"/>
<circle cx="56" cy="224" r="1.8" fill="#1F2022" fill-opacity="0.55"/>
<circle cx="68" cy="224" r="1.8" fill="#1F2022" fill-opacity="0.55"/>
<circle cx="80" cy="224" r="1.8" fill="#1F2022" fill-opacity="0.55"/>
<circle cx="92" cy="224" r="1.8" fill="#1F2022" fill-opacity="0.55"/>
<circle cx="104" cy="224" r="1.8" fill="#1F2022" fill-opacity="0.55"/>
<circle cx="116" cy="224" r="1.8" fill="#1F2022" fill-opacity="0.55"/>
<circle cx="128" cy="224" r="1.8" fill="#1F2022" fill-opacity="0.55"/>
<circle cx="140" cy="224" r="1.8" fill="#1F2022" fill-opacity="0.55"/>
<circle cx="152" cy="224" r="1.8" fill="#1F2022" fill-opacity="0.55"/>
<circle cx="164" cy="224" r="1.8" fill="#1F2022" fill-opacity="0.55"/>
<circle cx="176" cy="224" r="1.8" fill="#1F2022" fill-opacity="0.55"/>
<circle cx="188" cy="224" r="1.8" fill="#1F2022" fill-opacity="0.55"/>
<circle cx="200" cy="224" r="1.8" fill="#1F2022" fill-opacity="0.55"/>
<circle cx="212" cy="224" r="1.8" fill="#1F2022" fill-opacity="0.55"/>
<circle cx="224" cy="224" r="1.8" fill="#1F2022" fill-opacity="0.55"/>
</svg>
