<svg xmlns="http://www.w3.org/2000/svg" width="256" height="256" viewBox="0 0 256 256" fill="none">

<circle cx="68" cy="68" r="5" fill="#1F2022" fill-opacity="1.0"/>
<circle cx="98" cy="68" r="5" fill="#1F2022" fill-opacity="1.0"/>
<circle cx="128" cy="68" r="5" fill="#1F2022" fill-opacity="1.0"/>
<circle cx="158" cy="68" r="5" fill="#1F2022" fill-opacity="1.0"/>
<circle cx="188" cy="68" r="5" fill="#1F2022" fill-opacity="1.0"/>
<circle cx="68" cy="98" r="5" fill="#1F2022" fill-opacity="1.0"/>
<circle cx="98" cy="98" r="5" fill="#1F2022" fill-opacity="1.0"/>
<circle cx="128" cy="98" r="5" fill="#1F2022" fill-opacity="1.0"/>
<circle cx="158" cy="98" r="5" fill="#1F2022" fill-opacity="1.0"/>
<circle cx="188" cy="98" r="5" fill="#1F2022" fill-opacity="1.0"/>
<circle cx="68" cy="128" r="5" fill="#1F2022" fill-opacity="1.0"/>
<circle cx="98" cy="128" r="5" fill="#1F2022" fill-opacity="1.0"/>
<circle cx="128" cy="128" r="5" fill="#1F2022" fill-opacity="1.0"/>
<circle cx="158" cy="128" r="5" fill="#1F2022" fill-opacity="1.0"/>
<circle cx="188" cy="128" r="5" fill="#1F2022" fill-opacity="1.0"/>
<circle cx="68" cy="158" r="5" fill="#1F2022" fill-opacity="1.0"/>
<circle cx="98" cy="158" r="5" fill="#1F2022" fill-opacity="1.0"/>
<circle cx="128" cy="158" r="5" fill="#1F2022" fill-opacity="1.0"/>
<circle cx="158" cy="158" r="5" fill="#1F2022" fill-opacity="1.0"/>
<circle cx="188" cy="158" r="5" fill="#1F2022" fill-opacity="1.0"/>
<circle cx="68" cy="188" r="5" fill="#1F2022" fill-opacity="1.0"/>
<circle cx="98" cy="188" r="5" fill="#1F2022" fill-opacity="1.0"/>
<circle cx="128" cy="188" r="5" fill="#1F2022" fill-opacity="1.0"/>
<circle cx="158" cy="188" r="5" fill="#1F2022" fill-opacity="1.0"/>
<circle cx="188" cy="188" r="5" fill="#1F2022" fill-opacity="1.0"/>
</svg>
